<svg width="110" height="47" viewBox="0 0 110 47" fill="none" xmlns="http://www.w3.org/2000/svg">
<path d="M15 0.5H109.5V46.5H15C6.99187 46.5 0.5 40.0081 0.5 32V15C0.5 6.99187 6.99187 0.5 15 0.5Z" fill="#FFB900" stroke="#FFB900"/>
<path d="M36.8418 28L35.7754 25.2754H32.3418L31.2871 28H30.2793L33.666 19.3984H34.5039L37.873 28H36.8418ZM35.4648 24.3789L34.4688 21.7246C34.3398 21.3887 34.207 20.9766 34.0703 20.4883C33.9844 20.8633 33.8613 21.2754 33.7012 21.7246L32.6934 24.3789H35.4648ZM39.877 28H38.9043V18.8828H39.877V28ZM42.9121 28H41.9395V18.8828H42.9121V28ZM52.2344 26.248C52.2344 26.8457 52.0117 27.3066 51.5664 27.6309C51.1211 27.9551 50.4961 28.1172 49.6914 28.1172C48.8398 28.1172 48.1758 27.9824 47.6992 27.7129V26.8105C48.0078 26.9668 48.3379 27.0898 48.6895 27.1797C49.0449 27.2695 49.3867 27.3145 49.7148 27.3145C50.2227 27.3145 50.6133 27.2344 50.8867 27.0742C51.1602 26.9102 51.2969 26.6621 51.2969 26.3301C51.2969 26.0801 51.1875 25.8672 50.9688 25.6914C50.7539 25.5117 50.332 25.3008 49.7031 25.0586C49.1055 24.8359 48.6797 24.6426 48.4258 24.4785C48.1758 24.3105 47.9883 24.1211 47.8633 23.9102C47.7422 23.6992 47.6816 23.4473 47.6816 23.1543C47.6816 22.6309 47.8945 22.2188 48.3203 21.918C48.7461 21.6133 49.3301 21.4609 50.0723 21.4609C50.7637 21.4609 51.4395 21.6016 52.0996 21.8828L51.7539 22.6738C51.1094 22.4082 50.5254 22.2754 50.002 22.2754C49.541 22.2754 49.1934 22.3477 48.959 22.4922C48.7246 22.6367 48.6074 22.8359 48.6074 23.0898C48.6074 23.2617 48.6504 23.4082 48.7363 23.5293C48.8262 23.6504 48.9688 23.7656 49.1641 23.875C49.3594 23.9844 49.7344 24.1426 50.2891 24.3496C51.0508 24.627 51.5645 24.9062 51.8301 25.1875C52.0996 25.4688 52.2344 25.8223 52.2344 26.248ZM59.3652 24.7832C59.3652 25.8301 59.1016 26.6484 58.5742 27.2383C58.0469 27.8242 57.3184 28.1172 56.3887 28.1172C55.8145 28.1172 55.3047 27.9824 54.8594 27.7129C54.4141 27.4434 54.0703 27.0566 53.8281 26.5527C53.5859 26.0488 53.4648 25.459 53.4648 24.7832C53.4648 23.7363 53.7266 22.9219 54.25 22.3398C54.7734 21.7539 55.5 21.4609 56.4297 21.4609C57.3281 21.4609 58.041 21.7598 58.5684 22.3574C59.0996 22.9551 59.3652 23.7637 59.3652 24.7832ZM54.4727 24.7832C54.4727 25.6035 54.6367 26.2285 54.9648 26.6582C55.293 27.0879 55.7754 27.3027 56.4121 27.3027C57.0488 27.3027 57.5312 27.0898 57.8594 26.6641C58.1914 26.2344 58.3574 25.6074 58.3574 24.7832C58.3574 23.9668 58.1914 23.3477 57.8594 22.9258C57.5312 22.5 57.0449 22.2871 56.4004 22.2871C55.7637 22.2871 55.2832 22.4961 54.959 22.9141C54.6348 23.332 54.4727 23.9551 54.4727 24.7832ZM65.4707 28V23.8457C65.4707 23.3223 65.3516 22.9316 65.1133 22.6738C64.875 22.416 64.502 22.2871 63.9941 22.2871C63.3223 22.2871 62.8301 22.4688 62.5176 22.832C62.2051 23.1953 62.0488 23.7949 62.0488 24.6309V28H61.0762V21.5781H61.8672L62.0254 22.457H62.0723C62.2715 22.1406 62.5508 21.8965 62.9102 21.7246C63.2695 21.5488 63.6699 21.4609 64.1113 21.4609C64.8848 21.4609 65.4668 21.6484 65.8574 22.0234C66.248 22.3945 66.4434 22.9902 66.4434 23.8105V28H65.4707ZM73.7031 21.5781V22.1934L72.5137 22.334C72.623 22.4707 72.7207 22.6504 72.8066 22.873C72.8926 23.0918 72.9355 23.3398 72.9355 23.6172C72.9355 24.2461 72.7207 24.748 72.291 25.123C71.8613 25.498 71.2715 25.6855 70.5215 25.6855C70.3301 25.6855 70.1504 25.6699 69.9824 25.6387C69.5684 25.8574 69.3613 26.1328 69.3613 26.4648C69.3613 26.6406 69.4336 26.7715 69.5781 26.8574C69.7227 26.9395 69.9707 26.9805 70.3223 26.9805H71.459C72.1543 26.9805 72.6875 27.127 73.0586 27.4199C73.4336 27.7129 73.6211 28.1387 73.6211 28.6973C73.6211 29.4082 73.3359 29.9492 72.7656 30.3203C72.1953 30.6953 71.3633 30.8828 70.2695 30.8828C69.4297 30.8828 68.7812 30.7266 68.3242 30.4141C67.8711 30.1016 67.6445 29.6602 67.6445 29.0898C67.6445 28.6992 67.7695 28.3613 68.0195 28.0762C68.2695 27.791 68.6211 27.5977 69.0742 27.4961C68.9102 27.4219 68.7715 27.3066 68.6582 27.1504C68.5488 26.9941 68.4941 26.8125 68.4941 26.6055C68.4941 26.3711 68.5566 26.166 68.6816 25.9902C68.8066 25.8145 69.0039 25.6445 69.2734 25.4805C68.9414 25.3438 68.6699 25.1113 68.459 24.7832C68.252 24.4551 68.1484 24.0801 68.1484 23.6582C68.1484 22.9551 68.3594 22.4141 68.7812 22.0352C69.2031 21.6523 69.8008 21.4609 70.5742 21.4609C70.9102 21.4609 71.2129 21.5 71.4824 21.5781H73.7031ZM68.582 29.0781C68.582 29.4258 68.7285 29.6895 69.0215 29.8691C69.3145 30.0488 69.7344 30.1387 70.2812 30.1387C71.0977 30.1387 71.7012 30.0156 72.0918 29.7695C72.4863 29.5273 72.6836 29.1973 72.6836 28.7793C72.6836 28.4316 72.5762 28.1895 72.3613 28.0527C72.1465 27.9199 71.7422 27.8535 71.1484 27.8535H69.9824C69.541 27.8535 69.1973 27.959 68.9512 28.1699C68.7051 28.3809 68.582 28.6836 68.582 29.0781ZM69.1094 23.6348C69.1094 24.084 69.2363 24.4238 69.4902 24.6543C69.7441 24.8848 70.0977 25 70.5508 25C71.5 25 71.9746 24.5391 71.9746 23.6172C71.9746 22.6523 71.4941 22.1699 70.5332 22.1699C70.0762 22.1699 69.7246 22.293 69.4785 22.5391C69.2324 22.7852 69.1094 23.1504 69.1094 23.6348ZM79.1641 26.248C79.1641 26.8457 78.9414 27.3066 78.4961 27.6309C78.0508 27.9551 77.4258 28.1172 76.6211 28.1172C75.7695 28.1172 75.1055 27.9824 74.6289 27.7129V26.8105C74.9375 26.9668 75.2676 27.0898 75.6191 27.1797C75.9746 27.2695 76.3164 27.3145 76.6445 27.3145C77.1523 27.3145 77.543 27.2344 77.8164 27.0742C78.0898 26.9102 78.2266 26.6621 78.2266 26.3301C78.2266 26.0801 78.1172 25.8672 77.8984 25.6914C77.6836 25.5117 77.2617 25.3008 76.6328 25.0586C76.0352 24.8359 75.6094 24.6426 75.3555 24.4785C75.1055 24.3105 74.918 24.1211 74.793 23.9102C74.6719 23.6992 74.6113 23.4473 74.6113 23.1543C74.6113 22.6309 74.8242 22.2188 75.25 21.918C75.6758 21.6133 76.2598 21.4609 77.002 21.4609C77.6934 21.4609 78.3691 21.6016 79.0293 21.8828L78.6836 22.6738C78.0391 22.4082 77.4551 22.2754 76.9316 22.2754C76.4707 22.2754 76.123 22.3477 75.8887 22.4922C75.6543 22.6367 75.5371 22.8359 75.5371 23.0898C75.5371 23.2617 75.5801 23.4082 75.666 23.5293C75.7559 23.6504 75.8984 23.7656 76.0938 23.875C76.2891 23.9844 76.6641 24.1426 77.2188 24.3496C77.9805 24.627 78.4941 24.9062 78.7598 25.1875C79.0293 25.4688 79.1641 25.8223 79.1641 26.248Z" fill="black"/>
</svg>
