<svg width="160" height="160" viewBox="0 0 160 160" fill="none" xmlns="http://www.w3.org/2000/svg">
<path d="M80.0135 6.74382C49.1055 6.31756 19.093 28.098 10.2024 57.7817C1.53375 84.3173 9.60954 115.662 30.6236 134.263C49.0939 151.236 76.636 157.842 100.598 150.55C123.263 143.927 142.419 125.896 149.704 103.315C157.057 81.311 153.373 55.7913 139.458 37.0479C125.952 18.3642 103.206 6.48179 80.0135 6.74382ZM80.731 8.96876C110.716 8.92246 139.515 30.1055 147.997 58.9396C155.762 83.7087 148.809 112.651 130.001 130.693C112.651 147.799 86.1636 155.374 62.5175 149.007C38.2863 142.88 17.8158 123.19 11.5056 98.9014C5.38232 76.5465 10.7425 51.1873 26.1649 33.7436C39.6553 18.1492 60.039 8.60773 80.731 8.96876Z" fill="#FFB900"/>
<path d="M80.1082 56.8926C68.2217 56.6638 57.3357 67.0116 56.9326 78.8925C56.2444 89.5812 63.7606 100.262 74.2271 102.773C83.8288 105.385 94.8714 101.237 100.053 92.5949C105.227 84.3793 104.687 72.8855 98.282 65.4286C93.8634 60.0987 87.0781 56.7727 80.1082 56.8926ZM80.1259 59.1485C91.0147 58.8098 101.064 68.3113 101.326 79.2073C101.894 89.1775 94.4924 98.9985 84.6111 100.856C75.4925 102.82 65.3149 98.0751 61.337 89.5562C57.1743 81.1852 59.2567 70.0907 66.6134 64.1663C70.3555 60.9999 75.2158 59.1568 80.1259 59.1485Z" fill="#FFB900"/>
<path d="M79.5735 70.4193C72.9411 70.5829 68.3727 78.7186 71.42 84.5384C73.8086 89.5637 80.7151 90.9924 85.2973 88.1847C89.9446 85.6661 90.9715 79.034 88.0465 74.835C86.261 71.9534 82.9877 70.1456 79.5735 70.4193ZM80.2662 76.0476C84.2697 76.0536 85.4721 82.8725 81.428 83.9208C78.4912 84.8251 74.7349 81.507 76.4897 78.521C77.1855 77.1133 78.6501 76.0044 80.2662 76.0476Z" fill="#FFB900"/>
<path d="M44.8951 93.7958C43.0681 93.8021 42.872 96.1024 43.7062 97.3013C46.6638 102.941 50.5778 108.181 55.7179 112.022C58.5555 114.103 61.7061 116.088 65.0747 116.997C66.8837 116.599 66.5997 113.576 64.7447 113.533C56.341 109.712 49.7345 102.494 45.9582 94.202C45.663 93.9527 45.2822 93.8028 44.8951 93.7958Z" fill="#FFB900"/>
<path d="M27.1966 93.7931C25.0857 93.9082 25.0516 96.6649 26.0419 97.9979C31.873 115.203 46.1896 129.66 63.8836 134.423C64.9358 135.097 66.2204 134.535 66.2669 133.274C66.4174 132.007 65.2503 131.013 64.0474 131.076C47.061 125.964 33.4764 111.586 28.449 94.6371C28.1863 94.1938 27.7483 93.7695 27.1966 93.7931Z" fill="#FFB900"/>
<path d="M95.4181 43.1636C93.4888 43.1044 93.2825 46.3622 95.2265 46.5907C103.689 50.322 110.394 57.4977 114.108 65.9032C115.359 67.319 117.974 65.2991 116.75 63.7329C112.623 54.523 104.974 46.7546 95.5185 43.1625L95.4181 43.1636Z" fill="#FFB900"/>
<path d="M95.2751 25.3912C93.3248 25.5225 93.4188 28.8571 95.4478 28.8083C112.463 33.9008 126.533 47.9495 131.43 65.0393C131.786 66.6333 133.998 66.8449 134.654 65.3391C135.154 63.7069 133.81 62.0713 133.509 60.5127C127.396 43.8041 113.01 30.2389 95.8022 25.4419C95.6277 25.4246 95.4518 25.3803 95.2751 25.3912Z" fill="#FFB900"/>
</svg>
