<svg width="40" height="40" viewBox="0 0 40 40" fill="none" xmlns="http://www.w3.org/2000/svg">
<path d="M34.61 39.5H26.5361L26.5589 26.2062H30.9966C31.694 26.2062 32.2812 25.6845 32.3633 24.992L32.9094 20.3846C33.0065 19.566 32.367 18.8463 31.5427 18.8463H26.5352V15.492C26.5352 14.6395 26.6598 14.0619 26.9737 13.6891C27.2713 13.3357 27.8404 13.0531 29.027 13.0531L29.0272 13.0531L31.3482 13.052H31.3482C32.1079 13.0516 32.7237 12.4357 32.7237 11.6758V7.79074C32.7237 7.03059 32.1074 6.41449 31.3474 6.41449H27.5655C25.1596 6.41449 23.0815 7.15045 21.6035 8.61129C20.124 10.0736 19.3012 12.2076 19.3012 14.8942V18.8462H16.0944C15.3323 18.8462 14.7153 19.4655 14.7182 20.2277L14.736 24.8351C14.7389 25.5931 15.3541 26.206 16.1121 26.206H19.3248L19.302 39.4998H5.39012C2.68934 39.4998 0.5 37.3105 0.5 34.6097V5.39008C0.5 2.68933 2.68943 0.5 5.39012 0.5H34.6098C37.3106 0.5 39.4999 2.68933 39.5 5.39008V34.61C39.5 37.3107 37.3107 39.5 34.61 39.5Z" fill="#FFB900" stroke="#FFB900"/>
</svg>
