<svg width="289" height="43" viewBox="0 0 289 43" fill="none" xmlns="http://www.w3.org/2000/svg">
<path d="M18.9873 0.227539L20.0068 0.369141C19.818 1.48307 19.7236 2.25716 19.7236 2.69141C19.7236 3.25781 20.0635 3.64486 20.7432 3.85254C21.4417 4.04134 22.7633 4.13574 24.708 4.13574C26.0296 4.13574 27.8516 4.04134 30.1738 3.85254L37.3955 3.22949C39.9066 3.02181 42.2005 2.91797 44.2773 2.91797C50.168 2.91797 54.6709 4.10742 57.7861 6.48633C60.9202 8.84635 62.4873 12.2448 62.4873 16.6816C62.4873 19.9668 61.7132 23.318 60.165 26.7354C58.6357 30.1527 56.5684 33.1263 53.9629 35.6562C49.7148 39.7721 45.0798 41.8301 40.0576 41.8301C36.7913 41.8301 34.082 41.0843 31.9297 39.5928C29.7962 38.0824 27.4551 35.307 24.9062 31.2666L22.8105 27.9531L22.5557 27.5283L21.9893 27.7266C16.665 29.4635 12.7002 30.332 10.0947 30.332C7.33822 30.332 5.11979 29.5768 3.43945 28.0664C1.75911 26.556 0.918945 24.5736 0.918945 22.1191C0.918945 18.6074 2.46712 15.8604 5.56348 13.8779C7.65918 12.5186 9.82096 11.8389 12.0488 11.8389C14.2956 11.8389 16.2308 12.6696 17.8545 14.3311C19.4971 15.9736 21.876 19.4948 24.9912 24.8945L25.3311 25.4609L26.3789 25.0645C33.3646 22.4212 40.1426 19.5986 46.7129 16.5967L53.1699 13.6514L54.0479 13.2549C54.1234 13.5192 54.1611 13.7646 54.1611 13.9912C54.1611 15.2373 53.472 17.7767 52.0938 21.6094C50.8288 25.1211 50.1963 27.2074 50.1963 27.8682C50.1963 28.4346 50.555 28.7178 51.2725 28.7178C51.6312 28.7178 52.141 28.6139 52.8018 28.4062L53.1133 29.4258L52.4619 29.6523C50.9137 30.2188 49.0729 30.8418 46.9395 31.5215L46.2031 31.7764C46.2409 31.2855 46.3258 30.7663 46.458 30.2188L46.6846 29.2559C46.9489 28.1608 47.6286 26.0462 48.7236 22.9121C49.7243 20.0234 50.2246 18.3525 50.2246 17.8994C50.2246 17.182 49.9414 16.8232 49.375 16.8232C49.0352 16.8232 48.4404 17.012 47.5908 17.3896L45.5234 18.2959L39.1514 21.0713C34.6201 23.0348 30.4193 24.7246 26.5488 26.1406L25.8975 26.3672C28.5973 31.1439 31.1839 34.5706 33.6572 36.6475C36.1305 38.7054 38.8776 39.7344 41.8984 39.7344C44.5983 39.7344 47.2038 39.0075 49.7148 37.5537C52.2448 36.0999 54.3122 34.127 55.917 31.6348C58.6546 27.3678 60.0234 23.0065 60.0234 18.5508C60.0234 14.6615 58.6546 11.6689 55.917 9.57324C53.1794 7.45866 49.2712 6.40137 44.1924 6.40137C42.3799 6.40137 40.2087 6.51465 37.6787 6.74121L27.9648 7.67578C26.3034 7.82682 24.5853 7.90234 22.8105 7.90234C20.6582 7.90234 18.8363 7.63802 17.3447 7.10938L17.4863 6.57129C17.7695 5.55176 18.015 4.59831 18.2227 3.71094L18.874 0.680664L18.9873 0.227539ZM21.9609 26.5938L21.3096 25.5176C18.5342 20.9486 16.3441 17.9183 14.7393 16.4268C13.1344 14.9352 11.2464 14.1895 9.0752 14.1895C7.24382 14.1895 5.65788 14.8691 4.31738 16.2285C2.97689 17.569 2.30664 19.1549 2.30664 20.9863C2.30664 23.252 3.15625 25.1211 4.85547 26.5938C6.57357 28.0475 8.74479 28.7744 11.3691 28.7744C14.39 28.7744 17.9206 28.0475 21.9609 26.5938ZM79.3379 18.5791L78.3184 21.4395C77.6009 21.2884 76.9684 21.2129 76.4209 21.2129C74.2308 21.2129 71.8896 22.8932 69.3975 26.2539C68.2269 27.8587 67.2168 29.6051 66.3672 31.4932C65.5365 33.3812 64.498 36.2604 63.252 40.1309L62.9404 41.0938C61.7132 41.3581 60.5426 41.679 59.4287 42.0566L59.7402 41.207L62.2324 34.5801C64.5924 28.1986 65.7725 24.4414 65.7725 23.3086C65.7725 22.7233 65.5176 22.4307 65.0078 22.4307C64.7246 22.4307 64.0921 22.6855 63.1104 23.1953L62.7422 22.3174C65.3854 21.0335 67.7549 19.6081 69.8506 18.041C69.9261 18.3809 69.9639 18.6924 69.9639 18.9756C69.9639 20.4294 69.3125 22.8555 68.0098 26.2539L68.6895 25.4609C73.0885 20.6276 76.2038 18.2109 78.0352 18.2109C78.4316 18.2109 78.8659 18.3337 79.3379 18.5791ZM90.1279 29.4541C90.3923 29.9827 90.5244 30.4548 90.5244 30.8701C90.5244 32.6826 89.2689 34.7689 86.7578 37.1289C83.0951 40.584 79.9798 42.3115 77.4121 42.3115C75.2031 42.3115 74.0986 41.056 74.0986 38.5449C74.0986 35.7129 74.9577 32.7393 76.6758 29.624C78.4128 26.5088 80.6312 23.9411 83.3311 21.9209C86.6162 19.4665 89.5426 18.2393 92.1104 18.2393C93.6019 18.2393 94.3477 18.7868 94.3477 19.8818C94.3477 20.5993 93.9889 21.4678 93.2715 22.4873C92.554 23.488 91.6572 24.3942 90.5811 25.2061C89.5804 25.9424 88.306 26.6221 86.7578 27.2451C85.2285 27.8682 84.0485 28.1797 83.2178 28.1797C82.3304 28.1797 81.7168 27.6888 81.377 26.707C82.1699 26.8203 82.8024 26.877 83.2744 26.877C85.1624 26.877 86.8994 26.3389 88.4854 25.2627C90.0902 24.1676 90.8926 22.9876 90.8926 21.7227C90.8926 20.8164 90.3073 20.3633 89.1367 20.3633C87.041 20.3633 84.8981 21.6471 82.708 24.2148C81.1598 26.0273 79.8854 28.1419 78.8848 30.5586C77.8841 32.9753 77.3838 35.1276 77.3838 37.0156C77.3838 38.9603 78.1956 39.9326 79.8193 39.9326C81.5941 39.9326 83.4349 38.9603 85.3418 37.0156C87.2676 35.0521 88.863 32.5316 90.1279 29.4541ZM110.122 37.667L110.632 38.4033C108.649 39.8949 105.94 41.0654 102.504 41.915C102.598 40.0081 103.722 36.723 105.874 32.0596C103.438 34.9294 100.927 37.3083 98.3408 39.1963C95.7731 41.0843 93.734 42.0283 92.2236 42.0283C90.902 42.0283 90.2412 41.1882 90.2412 39.5078C90.2412 36.6569 91.5156 33.5794 94.0645 30.2754C96.6133 26.9525 99.8135 24.2243 103.665 22.0908C108.007 19.6553 112.331 18.4375 116.636 18.4375C117.24 18.4375 117.542 18.6641 117.542 19.1172C117.542 19.4948 117.259 20.2122 116.692 21.2695C115.409 21.043 114.162 20.9297 112.954 20.9297C107.196 20.9297 102.24 23.167 98.0859 27.6416C95.0273 30.9268 93.498 34.1836 93.498 37.4121C93.498 38.9225 94.055 39.6777 95.1689 39.6777C96.113 39.6777 97.4723 38.8659 99.2471 37.2422C101.022 35.5996 102.608 33.7021 104.005 31.5498C105.931 28.5667 107.243 25.4704 107.941 22.2607C108.753 22.7516 109.159 23.6579 109.159 24.9795C109.159 26.8109 108.234 28.916 106.384 31.2949C107.29 31.2194 108.413 30.9551 109.754 30.502L109.527 30.9834C107.734 35.0049 106.837 37.3555 106.837 38.0352C106.837 38.5827 107.092 38.8376 107.602 38.7998C108.074 38.762 108.914 38.3844 110.122 37.667ZM140.963 37.752L141.416 38.4883C139.415 39.9232 137.036 41.0938 134.279 42C134.581 37.8841 136.517 32.1634 140.085 24.8379L140.906 23.082C141.057 22.7988 141.133 22.5628 141.133 22.374C141.133 21.9209 140.935 21.6943 140.538 21.6943C139.726 21.6943 138.121 22.9027 135.724 25.3193C133.987 27.0563 132.344 29.2747 130.796 31.9746C129.267 34.6745 128.021 37.4876 127.058 40.4141C125.944 40.6973 124.613 41.2259 123.064 42L123.376 41.207L125.075 37.0439C126.321 33.9665 127.454 30.9268 128.474 27.9248C129.493 24.9229 130.003 23.1009 130.003 22.459C130.003 21.9115 129.748 21.6377 129.238 21.6377C128.596 21.6377 127.53 22.4023 126.038 23.9316C124.547 25.4421 123.159 27.179 121.875 29.1426C119.647 32.5788 117.712 36.3831 116.069 40.5557C115.824 40.6312 115.682 40.6784 115.645 40.6973L114.144 41.2354C113.539 41.443 112.916 41.679 112.274 41.9434C112.728 40.9805 113.615 38.9036 114.937 35.7129L117.146 30.3887C118.807 26.3483 119.666 23.8278 119.723 22.8271C119.76 22.1475 119.487 21.8076 118.901 21.8076C118.524 21.8076 117.957 21.9775 117.202 22.3174L116.862 21.4111C118.505 20.7692 120.619 19.6458 123.206 18.041L123.829 17.6445C123.886 18.0788 123.914 18.4469 123.914 18.749C123.914 20.3538 122.932 23.5446 120.969 28.3213C126.217 21.6188 130.286 18.2676 133.175 18.2676C134.024 18.2676 134.449 18.7207 134.449 19.627C134.449 20.9863 133.496 24.0072 131.589 28.6895C133.76 25.8385 136.111 23.3841 138.641 21.3262C141.189 19.2682 143.144 18.2393 144.503 18.2393C145.296 18.2393 145.692 18.6357 145.692 19.4287C145.692 19.9762 144.975 21.7793 143.54 24.8379C140.085 32.2578 138.357 36.5625 138.357 37.752C138.357 38.2617 138.603 38.5166 139.094 38.5166C139.452 38.5166 140.076 38.2617 140.963 37.752ZM192.987 7.08105C189.343 8.98796 186.285 12.056 183.812 16.2852C181.338 20.5143 180.102 24.8001 180.102 29.1426C180.102 32.2767 181.178 34.7028 183.33 36.4209C185.501 38.1201 188.579 38.9697 192.562 38.9697C197.585 38.9697 201.748 37.4971 205.052 34.5518C208.375 31.6064 210.357 27.6038 210.999 22.5439C211.49 23.5824 211.735 24.5452 211.735 25.4326C211.735 27.9814 210.121 30.9173 206.893 34.2402C201.814 39.4889 196.593 42.1133 191.231 42.1133C189.022 42.1133 186.861 41.7546 184.746 41.0371C182.65 40.3008 180.97 39.319 179.705 38.0918C177.628 36.1283 176.59 33.4661 176.59 30.1055C176.59 27.1413 177.222 24.1299 178.487 21.0713C179.752 18.0127 181.508 15.2373 183.755 12.7451C185.681 10.6305 188.239 8.61035 191.43 6.68457C186.653 5.34408 182.943 4.67383 180.3 4.67383C176.505 4.67383 173.418 5.8444 171.039 8.18555C168.679 10.5078 167.499 13.5381 167.499 17.2764C167.499 18.6735 167.726 20.25 168.179 22.0059C166.404 20.873 165.517 19.2588 165.517 17.1631C165.517 14.2933 166.867 11.3291 169.566 8.27051C173.456 3.85254 177.76 1.64355 182.48 1.64355C185.558 1.64355 190.118 2.56868 196.159 4.41895C196.556 4.28678 196.792 4.21126 196.867 4.19238L200.634 2.88965C203.957 1.75684 207.412 1.19043 210.999 1.19043C213.699 1.19043 215.87 1.63411 217.513 2.52148C219.174 3.38997 220.005 4.54167 220.005 5.97656C220.005 7.7513 218.343 9.08236 215.021 9.96973C213 10.4984 211.528 11.0837 210.603 11.7256L209.753 11.499L207.091 10.8477C203.825 10.0547 201.833 9.55436 201.115 9.34668L194.177 7.39258C194.101 7.3737 193.705 7.26986 192.987 7.08105ZM198.057 4.90039C200.757 5.78776 203.825 6.60905 207.261 7.36426C210.716 8.11947 213.095 8.49707 214.397 8.49707C215.606 8.49707 216.616 8.29883 217.428 7.90234C218.24 7.50586 218.646 7.01497 218.646 6.42969C218.646 5.39128 217.749 4.49447 215.955 3.73926C214.161 2.96517 212.028 2.57812 209.555 2.57812C205.609 2.57812 201.776 3.35221 198.057 4.90039ZM234.76 18.6357C233.438 21.1657 231.833 24.7246 229.945 29.3125C228.057 33.9004 227.094 36.5719 227.057 37.3271C227.038 37.9124 227.359 38.2051 228.02 38.2051C228.529 38.2051 229.275 38.0163 230.257 37.6387L230.625 38.4033C229.247 39.1208 226.972 40.0837 223.8 41.292L223.035 41.5752C223.526 38.4977 224.47 35.2126 225.867 31.7197C223.432 34.7972 221.119 37.2139 218.929 38.9697C216.757 40.7067 214.964 41.5752 213.548 41.5752C212.302 41.5752 211.679 40.9238 211.679 39.6211C211.679 38.054 212.84 34.835 215.162 29.9639L217.428 25.2061C218.126 23.7334 218.494 22.6761 218.532 22.0342C218.57 21.4111 218.249 21.0996 217.569 21.0996C217.267 21.0996 216.739 21.2129 215.983 21.4395L215.757 20.5898L216.21 20.4482C218.853 19.6742 221.053 18.9095 222.809 18.1543C222.809 19.6647 221.968 22.1475 220.288 25.6025L217.824 30.6436C215.936 34.514 214.992 36.8835 214.992 37.752C214.992 38.5638 215.351 38.9697 216.068 38.9697C217.9 38.9697 220.326 37.0628 223.347 33.249C226.368 29.4163 228.775 25.1966 230.568 20.5898L230.937 19.6836C232.032 19.5703 233.306 19.221 234.76 18.6357ZM251.695 37.8936L252.148 38.6582C249.883 40.2819 247.202 41.4147 244.105 42.0566C244.502 38.9414 246.333 34.2119 249.6 27.8682L251.44 24.3564C252.063 23.1481 252.375 22.374 252.375 22.0342C252.375 21.5244 252.167 21.2695 251.752 21.2695C251.167 21.2695 250.053 21.9303 248.41 23.252C246.786 24.5736 245.201 26.1029 243.652 27.8398C240.443 31.4271 237.752 35.7318 235.581 40.7539C234.694 40.9616 233.438 41.4147 231.814 42.1133C233.551 38.5638 235.298 34.5801 237.054 30.1621C238.828 25.7253 239.716 23.1009 239.716 22.2891C239.716 21.6094 239.442 21.2695 238.895 21.2695C238.611 21.2695 237.998 21.4111 237.054 21.6943C236.978 21.7132 236.874 21.7415 236.742 21.7793L236.572 20.873C239.215 20.1178 241.604 19.2682 243.737 18.3242L244.105 18.1543C244.143 18.3997 244.162 18.5697 244.162 18.6641C244.162 20.3444 242.925 23.9222 240.452 29.3975L240.056 30.2471L240.537 29.709C243.633 26.1784 246.484 23.403 249.09 21.3828C251.714 19.3438 253.763 18.3242 255.235 18.3242C256.16 18.3242 256.623 18.7962 256.623 19.7402C256.623 20.722 255.386 23.6201 252.913 28.4346C249.949 34.1742 248.467 37.4027 248.467 38.1201C248.467 38.6676 248.722 38.9414 249.231 38.9414C249.798 38.9414 250.572 38.6299 251.554 38.0068L251.695 37.8936ZM270.981 29.4541C271.246 29.9827 271.378 30.4548 271.378 30.8701C271.378 32.6826 270.122 34.7689 267.611 37.1289C263.949 40.584 260.833 42.3115 258.266 42.3115C256.057 42.3115 254.952 41.056 254.952 38.5449C254.952 35.7129 255.811 32.7393 257.529 29.624C259.266 26.5088 261.485 23.9411 264.185 21.9209C267.47 19.4665 270.396 18.2393 272.964 18.2393C274.455 18.2393 275.201 18.7868 275.201 19.8818C275.201 20.5993 274.842 21.4678 274.125 22.4873C273.408 23.488 272.511 24.3942 271.435 25.2061C270.434 25.9424 269.16 26.6221 267.611 27.2451C266.082 27.8682 264.902 28.1797 264.071 28.1797C263.184 28.1797 262.57 27.6888 262.23 26.707C263.023 26.8203 263.656 26.877 264.128 26.877C266.016 26.877 267.753 26.3389 269.339 25.2627C270.944 24.1676 271.746 22.9876 271.746 21.7227C271.746 20.8164 271.161 20.3633 269.99 20.3633C267.895 20.3633 265.752 21.6471 263.562 24.2148C262.013 26.0273 260.739 28.1419 259.738 30.5586C258.738 32.9753 258.237 35.1276 258.237 37.0156C258.237 38.9603 259.049 39.9326 260.673 39.9326C262.448 39.9326 264.288 38.9603 266.195 37.0156C268.121 35.0521 269.716 32.5316 270.981 29.4541ZM288.993 18.5225L288.682 19.0605L287.294 21.3828C286.803 22.2135 286.284 23.0443 285.736 23.875L285.425 24.3281L284.717 23.8467C284.811 23.639 284.877 23.488 284.915 23.3936C285.312 22.5817 285.51 22.0059 285.51 21.666C285.51 20.9486 284.877 20.5898 283.612 20.5898C282.461 20.5898 281.451 21.0241 280.582 21.8926C279.714 22.7422 279.279 23.7334 279.279 24.8662C279.279 25.4704 279.468 26.1878 279.846 27.0186L281.205 29.9355C281.658 30.9173 281.885 31.9935 281.885 33.1641C281.885 35.4486 280.629 37.6104 278.118 39.6494C275.947 41.4053 274.021 42.2832 272.341 42.2832C271.378 42.2832 270.585 42.0472 269.962 41.5752C269.339 41.0843 269.027 40.4613 269.027 39.7061C269.027 38.8187 269.254 37.9596 269.707 37.1289C270.878 39.1302 272.331 40.1309 274.068 40.1309C275.447 40.1309 276.664 39.6589 277.722 38.7148C278.779 37.7708 279.308 36.6758 279.308 35.4297C279.308 34.7689 279.119 34.0137 278.741 33.1641L277.07 29.5107C276.749 28.7933 276.589 28.0003 276.589 27.1318C276.589 25.5648 277.457 23.8089 279.194 21.8643C280.365 20.5804 281.526 19.6836 282.678 19.1738C283.848 18.6452 285.312 18.3809 287.067 18.3809C287.747 18.3809 288.389 18.4281 288.993 18.5225Z" fill="#FFB900"/>
</svg>
