<svg width="20" height="20" viewBox="0 0 20 20" fill="none" xmlns="http://www.w3.org/2000/svg">
<path d="M7.48982 7.72373L8.50391 9.52381L9.52381 7.71351L9.12155 6.99947C8.74506 6.32549 8.16332 5.75862 7.44231 5.36313C6.7213 4.96765 5.88987 4.75937 5.04228 4.76193H0V6.38106H5.04228C5.55085 6.37953 6.04972 6.50451 6.48233 6.74183C6.91494 6.97915 7.26396 7.31931 7.48982 7.72373Z" fill="#FFB900"/>
<path d="M17.2271 11.5184L16.0362 12.7729L17.1249 13.9198H13.661C13.1915 13.9214 12.7309 13.7845 12.3316 13.5245C11.9322 13.2644 11.61 12.8917 11.4015 12.4486L10.4653 10.4762L9.5238 12.4598L9.89516 13.2422C10.2427 13.9806 10.7798 14.6018 11.4454 15.0351C12.111 15.4685 12.8785 15.6967 13.661 15.6939H17.1249L16.0362 16.8407L17.2271 18.0952L19.7533 15.4341C19.8315 15.3517 19.8936 15.2539 19.9359 15.1463C19.9782 15.0387 20 14.9233 20 14.8068C20 14.6903 19.9782 14.575 19.9359 14.4673C19.8936 14.3597 19.8315 14.2619 19.7533 14.1796L17.2271 11.5184Z" fill="#FFB900"/>
<path d="M19.7559 5.25133L17.2559 2.85715L16.0774 3.98581L17.1548 5.0176H13.7267C12.9524 5.01508 12.1928 5.2204 11.5341 5.61026C10.8754 6.00012 10.3439 6.55894 9.99998 7.22334L6.84259 13.2708C6.63625 13.6694 6.31739 14.0047 5.92217 14.2387C5.52694 14.4726 5.07118 14.5958 4.60656 14.5943H0V16.1905H4.60656C5.3809 16.193 6.14049 15.9877 6.79919 15.5978C7.4579 15.2079 7.98936 14.6491 8.33332 13.9847L11.4907 7.93731C11.6971 7.53863 12.0159 7.20331 12.4111 6.96936C12.8064 6.73542 13.2621 6.61221 13.7267 6.61372H17.1548L16.0774 7.64552L17.2559 8.77417L19.7559 6.37999C19.8333 6.30588 19.8947 6.2179 19.9366 6.12107C19.9784 6.02425 20 5.92047 20 5.81566C20 5.71085 19.9784 5.60707 19.9366 5.51025C19.8947 5.41342 19.8333 5.32544 19.7559 5.25133Z" fill="#FFB900"/>
<path d="M3.43005 19.3178L13.7726 -7.26596e-08L15.1396 0.682234L4.79702 20L3.43005 19.3178Z" fill="#FFB900"/>
</svg>
