<svg width="75" height="75" viewBox="0 0 75 75" fill="none" xmlns="http://www.w3.org/2000/svg">
<path d="M56.9538 36.4675L29.4537 17.7175C29.07 17.4575 28.575 17.4288 28.165 17.645C27.7562 17.8613 27.5 18.2863 27.5 18.75V56.25C27.5 56.7137 27.7563 57.1387 28.1663 57.355C28.3488 57.4525 28.55 57.5 28.75 57.5C28.9963 57.5 29.2425 57.4263 29.4537 57.2825L56.9538 38.5325C57.295 38.3 57.5 37.9138 57.5 37.5C57.5 37.0863 57.295 36.7 56.9538 36.4675ZM30 53.8837V21.1163L54.0312 37.5L30 53.8837Z" fill="#FFB900"/>
<path d="M37.5 0C16.8225 0 0 16.8225 0 37.5C0 58.1775 16.8225 75 37.5 75C58.1775 75 75 58.1775 75 37.5C75 16.8225 58.1775 0 37.5 0ZM37.5 72.5C18.2013 72.5 2.5 56.7988 2.5 37.5C2.5 18.2013 18.2013 2.5 37.5 2.5C56.7988 2.5 72.5 18.2013 72.5 37.5C72.5 56.7988 56.7988 72.5 37.5 72.5Z" fill="#FFB900"/>
</svg>
