<svg width="20" height="20" viewBox="0 0 20 20" fill="none" xmlns="http://www.w3.org/2000/svg">
<g clip-path="url(#clip0)">
<path d="M6.84261 7.21541L7.76906 9.06833L8.70083 7.20489L8.33333 6.46989C7.98938 5.77613 7.45791 5.19261 6.79921 4.78552C6.1405 4.37843 5.38091 4.16404 4.60656 4.16667H0V5.83333H4.60656C5.07119 5.83176 5.52695 5.96041 5.92218 6.20469C6.3174 6.44898 6.63626 6.79912 6.84261 7.21541Z" fill="#FFB900"/>
<path d="M17.2559 11.9107L16.0773 13.0893L17.1547 14.1667H13.7267C13.2621 14.1682 12.8063 14.0396 12.4111 13.7953C12.0159 13.551 11.697 13.2009 11.4907 12.7846L10.5642 10.9317L9.63245 12.7951L9.99995 13.5301C10.3439 14.2239 10.8754 14.8074 11.5341 15.2145C12.1928 15.6216 12.9524 15.8359 13.7267 15.8333H17.1547L16.0773 16.9107L17.2559 18.0893L19.7559 15.5893C19.8333 15.5119 19.8947 15.42 19.9365 15.3189C19.9784 15.2178 20 15.1094 20 15C20 14.8906 19.9784 14.7822 19.9365 14.6811C19.8947 14.58 19.8333 14.4881 19.7559 14.4107L17.2559 11.9107Z" fill="#FFB900"/>
<path d="M19.7559 4.41072L17.2559 1.91072L16.0774 3.08926L17.1548 4.16666H13.7268C12.9524 4.16403 12.1928 4.37842 11.5341 4.78551C10.8754 5.19261 10.344 5.77612 10 6.46989L6.8426 12.7846C6.63626 13.2009 6.3174 13.551 5.92218 13.7953C5.52695 14.0396 5.07119 14.1682 4.60656 14.1667H0V15.8333H4.60656C5.38091 15.836 6.1405 15.6216 6.79921 15.2145C7.45791 14.8074 7.98938 14.2239 8.33333 13.5301L11.4907 7.21541C11.6971 6.79912 12.0159 6.44897 12.4112 6.20469C12.8064 5.9604 13.2621 5.83175 13.7268 5.83332H17.1548L16.0774 6.91072L17.2559 8.08926L19.7559 5.58926C19.8333 5.51188 19.8947 5.42001 19.9366 5.3189C19.9785 5.2178 20 5.10943 20 4.99999C20 4.89055 19.9785 4.78219 19.9366 4.68108C19.8947 4.57997 19.8333 4.4881 19.7559 4.41072Z" fill="#FFB900"/>
</g>
<defs>
<clipPath id="clip0">
<rect width="20" height="20" fill="white"/>
</clipPath>
</defs>
</svg>
