<svg width="142" height="37" viewBox="0 0 142 37" fill="none" xmlns="http://www.w3.org/2000/svg">
<path d="M5 0.5H137C139.485 0.5 141.5 2.51472 141.5 5V32C141.5 34.4853 139.485 36.5 137 36.5H5C2.51472 36.5 0.5 34.4853 0.5 32V5C0.5 2.51472 2.51472 0.5 5 0.5Z" fill="black" stroke="#FFB900"/>
<path d="M49.8477 22.2012C49.8477 23.4577 49.3919 24.4375 48.4805 25.1406C47.569 25.8438 46.332 26.1953 44.7695 26.1953C43.0768 26.1953 41.7747 25.9772 40.8633 25.541V23.9395C41.4492 24.1868 42.0872 24.3822 42.7773 24.5254C43.4674 24.6686 44.151 24.7402 44.8281 24.7402C45.9349 24.7402 46.7682 24.5319 47.3281 24.1152C47.888 23.6921 48.168 23.1061 48.168 22.3574C48.168 21.8626 48.0671 21.459 47.8652 21.1465C47.6699 20.8275 47.3379 20.5345 46.8691 20.2676C46.4069 20.0007 45.7005 19.6979 44.75 19.3594C43.4219 18.8841 42.4714 18.321 41.8984 17.6699C41.332 17.0189 41.0488 16.1693 41.0488 15.1211C41.0488 14.0208 41.4622 13.1452 42.2891 12.4941C43.1159 11.8431 44.2096 11.5176 45.5703 11.5176C46.9896 11.5176 48.2949 11.778 49.4863 12.2988L48.9688 13.7441C47.7904 13.2493 46.6445 13.002 45.5312 13.002C44.6523 13.002 43.9655 13.1908 43.4707 13.5684C42.9759 13.946 42.7285 14.4701 42.7285 15.1406C42.7285 15.6354 42.8197 16.0423 43.002 16.3613C43.1842 16.6738 43.4902 16.9635 43.9199 17.2305C44.3561 17.4909 45.0202 17.7806 45.9121 18.0996C47.4095 18.6335 48.4382 19.2064 48.998 19.8184C49.5645 20.4303 49.8477 21.2246 49.8477 22.2012ZM54.1445 26H52.5234V15.2969H54.1445V26ZM52.3867 12.3965C52.3867 12.0254 52.4779 11.7552 52.6602 11.5859C52.8424 11.4102 53.0703 11.3223 53.3438 11.3223C53.6042 11.3223 53.8288 11.4102 54.0176 11.5859C54.2064 11.7617 54.3008 12.0319 54.3008 12.3965C54.3008 12.7611 54.2064 13.0345 54.0176 13.2168C53.8288 13.3926 53.6042 13.4805 53.3438 13.4805C53.0703 13.4805 52.8424 13.3926 52.6602 13.2168C52.4779 13.0345 52.3867 12.7611 52.3867 12.3965ZM66.3418 15.2969V16.3223L64.3594 16.5566C64.5417 16.7845 64.7044 17.084 64.8477 17.4551C64.9909 17.8197 65.0625 18.2331 65.0625 18.6953C65.0625 19.7435 64.7044 20.5801 63.9883 21.2051C63.2721 21.8301 62.2891 22.1426 61.0391 22.1426C60.7201 22.1426 60.4206 22.1165 60.1406 22.0645C59.4505 22.429 59.1055 22.888 59.1055 23.4414C59.1055 23.7344 59.2259 23.9525 59.4668 24.0957C59.7077 24.2324 60.1211 24.3008 60.707 24.3008H62.6016C63.7604 24.3008 64.6491 24.5449 65.2676 25.0332C65.8926 25.5215 66.2051 26.2311 66.2051 27.1621C66.2051 28.347 65.7298 29.2487 64.7793 29.8672C63.8288 30.4922 62.4421 30.8047 60.6191 30.8047C59.2194 30.8047 58.1387 30.5443 57.377 30.0234C56.6217 29.5026 56.2441 28.7669 56.2441 27.8164C56.2441 27.1654 56.4525 26.6022 56.8691 26.127C57.2858 25.6517 57.8717 25.3294 58.627 25.1602C58.3535 25.0365 58.1224 24.8444 57.9336 24.584C57.7513 24.3236 57.6602 24.0208 57.6602 23.6758C57.6602 23.2852 57.7643 22.9434 57.9727 22.6504C58.181 22.3574 58.5098 22.0742 58.959 21.8008C58.4056 21.5729 57.9531 21.1855 57.6016 20.6387C57.2565 20.0918 57.084 19.4668 57.084 18.7637C57.084 17.5918 57.4355 16.6901 58.1387 16.0586C58.8418 15.4206 59.8379 15.1016 61.127 15.1016C61.6868 15.1016 62.1914 15.1667 62.6406 15.2969H66.3418ZM57.8066 27.7969C57.8066 28.3763 58.0508 28.8158 58.5391 29.1152C59.0273 29.4147 59.7272 29.5645 60.6387 29.5645C61.9993 29.5645 63.0052 29.3594 63.6562 28.9492C64.3138 28.5456 64.6426 27.9954 64.6426 27.2988C64.6426 26.7194 64.4635 26.3158 64.1055 26.0879C63.7474 25.8665 63.0736 25.7559 62.084 25.7559H60.1406C59.4049 25.7559 58.832 25.9316 58.4219 26.2832C58.0117 26.6348 57.8066 27.1393 57.8066 27.7969ZM58.6855 18.7246C58.6855 19.4733 58.8971 20.0397 59.3203 20.4238C59.7435 20.8079 60.3327 21 61.0879 21C62.6699 21 63.4609 20.2318 63.4609 18.6953C63.4609 17.0872 62.6602 16.2832 61.0586 16.2832C60.2969 16.2832 59.7109 16.4883 59.3008 16.8984C58.8906 17.3086 58.6855 17.9173 58.6855 18.7246ZM75.8633 26V19.0762C75.8633 18.2038 75.6647 17.5527 75.2676 17.123C74.8704 16.6934 74.2487 16.4785 73.4023 16.4785C72.2826 16.4785 71.4622 16.7812 70.9414 17.3867C70.4206 17.9922 70.1602 18.9915 70.1602 20.3848V26H68.5391V15.2969H69.8574L70.1211 16.7617H70.1992C70.5312 16.2344 70.9967 15.8275 71.5957 15.541C72.1947 15.248 72.862 15.1016 73.5977 15.1016C74.8867 15.1016 75.8568 15.4141 76.5078 16.0391C77.1589 16.6576 77.4844 17.6504 77.4844 19.0176V26H75.8633ZM86.2637 26V11.7227H87.9238V26H86.2637ZM98.9297 26V19.0762C98.9297 18.2038 98.7311 17.5527 98.334 17.123C97.9368 16.6934 97.3151 16.4785 96.4688 16.4785C95.349 16.4785 94.5286 16.7812 94.0078 17.3867C93.487 17.9922 93.2266 18.9915 93.2266 20.3848V26H91.6055V15.2969H92.9238L93.1875 16.7617H93.2656C93.5977 16.2344 94.0632 15.8275 94.6621 15.541C95.2611 15.248 95.9284 15.1016 96.6641 15.1016C97.9531 15.1016 98.9232 15.4141 99.5742 16.0391C100.225 16.6576 100.551 17.6504 100.551 19.0176V26H98.9297Z" fill="#FFB900"/>
</svg>
