<svg width="202" height="17" viewBox="0 0 202 17" fill="none" xmlns="http://www.w3.org/2000/svg">
<path d="M84.7695 10.6211C84.7695 11.3945 84.4902 12.0039 83.9316 12.4492C83.377 12.8945 82.6035 13.1172 81.6113 13.1172C80.6973 13.1172 79.8887 12.9453 79.1855 12.6016V10.9141C79.7637 11.1719 80.252 11.3535 80.6504 11.459C81.0527 11.5645 81.4199 11.6172 81.752 11.6172C82.1504 11.6172 82.4551 11.541 82.666 11.3887C82.8809 11.2363 82.9883 11.0098 82.9883 10.709C82.9883 10.541 82.9414 10.3926 82.8477 10.2637C82.7539 10.1309 82.6152 10.0039 82.4316 9.88281C82.252 9.76172 81.8828 9.56836 81.3242 9.30273C80.8008 9.05664 80.4082 8.82031 80.1465 8.59375C79.8848 8.36719 79.6758 8.10352 79.5195 7.80273C79.3633 7.50195 79.2852 7.15039 79.2852 6.74805C79.2852 5.99023 79.541 5.39453 80.0527 4.96094C80.5684 4.52734 81.2793 4.31055 82.1855 4.31055C82.6309 4.31055 83.0547 4.36328 83.457 4.46875C83.8633 4.57422 84.2871 4.72266 84.7285 4.91406L84.1426 6.32617C83.6855 6.13867 83.3066 6.00781 83.0059 5.93359C82.709 5.85938 82.416 5.82227 82.127 5.82227C81.7832 5.82227 81.5195 5.90234 81.3359 6.0625C81.1523 6.22266 81.0605 6.43164 81.0605 6.68945C81.0605 6.84961 81.0977 6.99023 81.1719 7.11133C81.2461 7.22852 81.3633 7.34375 81.5234 7.45703C81.6875 7.56641 82.0723 7.76562 82.6777 8.05469C83.4785 8.4375 84.0273 8.82227 84.3242 9.20898C84.6211 9.5918 84.7695 10.0625 84.7695 10.6211ZM86.1055 4.75586C86.1055 4.17383 86.4297 3.88281 87.0781 3.88281C87.7266 3.88281 88.0508 4.17383 88.0508 4.75586C88.0508 5.0332 87.9688 5.25 87.8047 5.40625C87.6445 5.55859 87.4023 5.63477 87.0781 5.63477C86.4297 5.63477 86.1055 5.3418 86.1055 4.75586ZM87.9688 13H86.1816V6.44922H87.9688V13ZM95.5508 6.44922V7.35742L94.5254 7.62109C94.7129 7.91406 94.8066 8.24219 94.8066 8.60547C94.8066 9.30859 94.5605 9.85742 94.0684 10.252C93.5801 10.6426 92.9004 10.8379 92.0293 10.8379L91.707 10.8203L91.4434 10.791C91.2598 10.9316 91.168 11.0879 91.168 11.2598C91.168 11.5176 91.4961 11.6465 92.1523 11.6465H93.2656C93.9844 11.6465 94.5312 11.8008 94.9062 12.1094C95.2852 12.418 95.4746 12.8711 95.4746 13.4688C95.4746 14.2344 95.1543 14.8281 94.5137 15.25C93.877 15.6719 92.9609 15.8828 91.7656 15.8828C90.8516 15.8828 90.1523 15.7227 89.668 15.4023C89.1875 15.0859 88.9473 14.6406 88.9473 14.0664C88.9473 13.6719 89.0703 13.3418 89.3164 13.0762C89.5625 12.8105 89.9238 12.6211 90.4004 12.5078C90.2168 12.4297 90.0566 12.3027 89.9199 12.127C89.7832 11.9473 89.7148 11.7578 89.7148 11.5586C89.7148 11.3086 89.7871 11.1016 89.9316 10.9375C90.0762 10.7695 90.2852 10.6055 90.5586 10.4453C90.2148 10.2969 89.9414 10.0586 89.7383 9.73047C89.5391 9.40234 89.4395 9.01562 89.4395 8.57031C89.4395 7.85547 89.6719 7.30273 90.1367 6.91211C90.6016 6.52148 91.2656 6.32617 92.1289 6.32617C92.3125 6.32617 92.5293 6.34375 92.7793 6.37891C93.0332 6.41016 93.1953 6.43359 93.2656 6.44922H95.5508ZM90.4941 13.9258C90.4941 14.1719 90.6113 14.3652 90.8457 14.5059C91.084 14.6465 91.416 14.7168 91.8418 14.7168C92.4824 14.7168 92.9844 14.6289 93.3477 14.4531C93.7109 14.2773 93.8926 14.0371 93.8926 13.7324C93.8926 13.4863 93.7852 13.3164 93.5703 13.2227C93.3555 13.1289 93.0234 13.082 92.5742 13.082H91.6484C91.3203 13.082 91.0449 13.1582 90.8223 13.3105C90.6035 13.4668 90.4941 13.6719 90.4941 13.9258ZM91.1445 8.59375C91.1445 8.94922 91.2246 9.23047 91.3848 9.4375C91.5488 9.64453 91.7969 9.74805 92.1289 9.74805C92.4648 9.74805 92.7109 9.64453 92.8672 9.4375C93.0234 9.23047 93.1016 8.94922 93.1016 8.59375C93.1016 7.80469 92.7773 7.41016 92.1289 7.41016C91.4727 7.41016 91.1445 7.80469 91.1445 8.59375ZM102.682 13H100.895V9.17383C100.895 8.70117 100.811 8.34766 100.643 8.11328C100.475 7.875 100.207 7.75586 99.8398 7.75586C99.3398 7.75586 98.9785 7.92383 98.7559 8.25977C98.5332 8.5918 98.4219 9.14453 98.4219 9.91797V13H96.6348V6.44922H98L98.2402 7.28711H98.3398C98.5391 6.9707 98.8125 6.73242 99.1602 6.57227C99.5117 6.4082 99.9102 6.32617 100.355 6.32617C101.117 6.32617 101.695 6.5332 102.09 6.94727C102.484 7.35742 102.682 7.95117 102.682 8.72852V13ZM114.752 4.43359V9.97656C114.752 10.6094 114.609 11.1641 114.324 11.6406C114.043 12.1172 113.635 12.4824 113.1 12.7363C112.564 12.9902 111.932 13.1172 111.201 13.1172C110.1 13.1172 109.244 12.8359 108.635 12.2734C108.025 11.707 107.721 10.9336 107.721 9.95312V4.43359H109.531V9.67773C109.531 10.3379 109.664 10.8223 109.93 11.1309C110.195 11.4395 110.635 11.5938 111.248 11.5938C111.842 11.5938 112.271 11.4395 112.537 11.1309C112.807 10.8184 112.941 10.3301 112.941 9.66602V4.43359H114.752ZM120.307 13.1172C119.537 13.1172 118.934 12.8379 118.496 12.2793H118.402C118.465 12.8262 118.496 13.1426 118.496 13.2285V15.8828H116.709V6.44922H118.162L118.414 7.29883H118.496C118.914 6.65039 119.533 6.32617 120.354 6.32617C121.127 6.32617 121.732 6.625 122.17 7.22266C122.607 7.82031 122.826 8.65039 122.826 9.71289C122.826 10.4121 122.723 11.0195 122.516 11.5352C122.312 12.0508 122.021 12.4434 121.643 12.7129C121.264 12.9824 120.818 13.1172 120.307 13.1172ZM119.779 7.75586C119.338 7.75586 119.016 7.89258 118.812 8.16602C118.609 8.43555 118.504 8.88281 118.496 9.50781V9.70117C118.496 10.4043 118.6 10.9082 118.807 11.2129C119.018 11.5176 119.35 11.6699 119.803 11.6699C120.604 11.6699 121.004 11.0098 121.004 9.68945C121.004 9.04492 120.904 8.5625 120.705 8.24219C120.51 7.91797 120.201 7.75586 119.779 7.75586Z" fill="#FFB900"/>
</svg>
