<svg width="142" height="37" viewBox="0 0 142 37" fill="none" xmlns="http://www.w3.org/2000/svg">
<path d="M5 0.5H137C139.485 0.5 141.5 2.51472 141.5 5V32C141.5 34.4853 139.485 36.5 137 36.5H5C2.51472 36.5 0.5 34.4853 0.5 32V5C0.5 2.51472 2.51472 0.5 5 0.5Z" fill="black" stroke="#FFB900"/>
<path d="M45.3652 22.2012C45.3652 23.4577 44.9095 24.4375 43.998 25.1406C43.0866 25.8438 41.8496 26.1953 40.2871 26.1953C38.5944 26.1953 37.2923 25.9772 36.3809 25.541V23.9395C36.9668 24.1868 37.6048 24.3822 38.2949 24.5254C38.985 24.6686 39.6686 24.7402 40.3457 24.7402C41.4525 24.7402 42.2858 24.5319 42.8457 24.1152C43.4056 23.6921 43.6855 23.1061 43.6855 22.3574C43.6855 21.8626 43.5846 21.459 43.3828 21.1465C43.1875 20.8275 42.8555 20.5345 42.3867 20.2676C41.9245 20.0007 41.2181 19.6979 40.2676 19.3594C38.9395 18.8841 37.9889 18.321 37.416 17.6699C36.8496 17.0189 36.5664 16.1693 36.5664 15.1211C36.5664 14.0208 36.9798 13.1452 37.8066 12.4941C38.6335 11.8431 39.7272 11.5176 41.0879 11.5176C42.5072 11.5176 43.8125 11.778 45.0039 12.2988L44.4863 13.7441C43.3079 13.2493 42.1621 13.002 41.0488 13.002C40.1699 13.002 39.4831 13.1908 38.9883 13.5684C38.4935 13.946 38.2461 14.4701 38.2461 15.1406C38.2461 15.6354 38.3372 16.0423 38.5195 16.3613C38.7018 16.6738 39.0078 16.9635 39.4375 17.2305C39.8737 17.4909 40.5378 17.7806 41.4297 18.0996C42.9271 18.6335 43.9557 19.2064 44.5156 19.8184C45.082 20.4303 45.3652 21.2246 45.3652 22.2012ZM49.6621 26H48.041V15.2969H49.6621V26ZM47.9043 12.3965C47.9043 12.0254 47.9954 11.7552 48.1777 11.5859C48.36 11.4102 48.5879 11.3223 48.8613 11.3223C49.1217 11.3223 49.3464 11.4102 49.5352 11.5859C49.724 11.7617 49.8184 12.0319 49.8184 12.3965C49.8184 12.7611 49.724 13.0345 49.5352 13.2168C49.3464 13.3926 49.1217 13.4805 48.8613 13.4805C48.5879 13.4805 48.36 13.3926 48.1777 13.2168C47.9954 13.0345 47.9043 12.7611 47.9043 12.3965ZM61.8594 15.2969V16.3223L59.877 16.5566C60.0592 16.7845 60.222 17.084 60.3652 17.4551C60.5085 17.8197 60.5801 18.2331 60.5801 18.6953C60.5801 19.7435 60.222 20.5801 59.5059 21.2051C58.7897 21.8301 57.8066 22.1426 56.5566 22.1426C56.2376 22.1426 55.9382 22.1165 55.6582 22.0645C54.9681 22.429 54.623 22.888 54.623 23.4414C54.623 23.7344 54.7435 23.9525 54.9844 24.0957C55.2253 24.2324 55.6387 24.3008 56.2246 24.3008H58.1191C59.278 24.3008 60.1667 24.5449 60.7852 25.0332C61.4102 25.5215 61.7227 26.2311 61.7227 27.1621C61.7227 28.347 61.2474 29.2487 60.2969 29.8672C59.3464 30.4922 57.9596 30.8047 56.1367 30.8047C54.737 30.8047 53.6562 30.5443 52.8945 30.0234C52.1393 29.5026 51.7617 28.7669 51.7617 27.8164C51.7617 27.1654 51.9701 26.6022 52.3867 26.127C52.8034 25.6517 53.3893 25.3294 54.1445 25.1602C53.8711 25.0365 53.64 24.8444 53.4512 24.584C53.2689 24.3236 53.1777 24.0208 53.1777 23.6758C53.1777 23.2852 53.2819 22.9434 53.4902 22.6504C53.6986 22.3574 54.0273 22.0742 54.4766 21.8008C53.9232 21.5729 53.4707 21.1855 53.1191 20.6387C52.7741 20.0918 52.6016 19.4668 52.6016 18.7637C52.6016 17.5918 52.9531 16.6901 53.6562 16.0586C54.3594 15.4206 55.3555 15.1016 56.6445 15.1016C57.2044 15.1016 57.709 15.1667 58.1582 15.2969H61.8594ZM53.3242 27.7969C53.3242 28.3763 53.5684 28.8158 54.0566 29.1152C54.5449 29.4147 55.2448 29.5645 56.1562 29.5645C57.5169 29.5645 58.5228 29.3594 59.1738 28.9492C59.8314 28.5456 60.1602 27.9954 60.1602 27.2988C60.1602 26.7194 59.9811 26.3158 59.623 26.0879C59.265 25.8665 58.5911 25.7559 57.6016 25.7559H55.6582C54.9225 25.7559 54.3496 25.9316 53.9395 26.2832C53.5293 26.6348 53.3242 27.1393 53.3242 27.7969ZM54.2031 18.7246C54.2031 19.4733 54.4147 20.0397 54.8379 20.4238C55.2611 20.8079 55.8503 21 56.6055 21C58.1875 21 58.9785 20.2318 58.9785 18.6953C58.9785 17.0872 58.1777 16.2832 56.5762 16.2832C55.8145 16.2832 55.2285 16.4883 54.8184 16.8984C54.4082 17.3086 54.2031 17.9173 54.2031 18.7246ZM71.3809 26V19.0762C71.3809 18.2038 71.1823 17.5527 70.7852 17.123C70.388 16.6934 69.7663 16.4785 68.9199 16.4785C67.8001 16.4785 66.9798 16.7812 66.459 17.3867C65.9382 17.9922 65.6777 18.9915 65.6777 20.3848V26H64.0566V15.2969H65.375L65.6387 16.7617H65.7168C66.0488 16.2344 66.5143 15.8275 67.1133 15.541C67.7122 15.248 68.3796 15.1016 69.1152 15.1016C70.4043 15.1016 71.3743 15.4141 72.0254 16.0391C72.6764 16.6576 73.002 17.6504 73.002 19.0176V26H71.3809ZM92.5625 11.7227V20.9609C92.5625 22.5885 92.071 23.8678 91.0879 24.7988C90.1048 25.7298 88.7539 26.1953 87.0352 26.1953C85.3164 26.1953 83.985 25.7266 83.041 24.7891C82.1035 23.8516 81.6348 22.5625 81.6348 20.9219V11.7227H83.2949V21.0391C83.2949 22.2305 83.6204 23.1452 84.2715 23.7832C84.9225 24.4212 85.8796 24.7402 87.1426 24.7402C88.347 24.7402 89.2747 24.4212 89.9258 23.7832C90.5768 23.1387 90.9023 22.2174 90.9023 21.0195V11.7227H92.5625ZM101.088 26.1953C100.391 26.1953 99.7533 26.0684 99.1738 25.8145C98.6009 25.554 98.1191 25.1569 97.7285 24.623H97.6113C97.6895 25.248 97.7285 25.8405 97.7285 26.4004V30.8047H96.1074V15.2969H97.4258L97.6504 16.7617H97.7285C98.1452 16.1758 98.6302 15.7526 99.1836 15.4922C99.737 15.2318 100.372 15.1016 101.088 15.1016C102.507 15.1016 103.601 15.5866 104.369 16.5566C105.144 17.5267 105.531 18.8874 105.531 20.6387C105.531 22.3965 105.137 23.7637 104.35 24.7402C103.568 25.7103 102.481 26.1953 101.088 26.1953ZM100.854 16.4785C99.7598 16.4785 98.9688 16.7812 98.4805 17.3867C97.9922 17.9922 97.7415 18.9557 97.7285 20.2773V20.6387C97.7285 22.1426 97.9792 23.2201 98.4805 23.8711C98.9818 24.5156 99.7858 24.8379 100.893 24.8379C101.817 24.8379 102.54 24.4635 103.061 23.7148C103.588 22.9661 103.852 21.9342 103.852 20.6191C103.852 19.2845 103.588 18.2624 103.061 17.5527C102.54 16.8366 101.804 16.4785 100.854 16.4785Z" fill="#FFB900"/>
</svg>
