<svg width="202" height="17" viewBox="0 0 202 17" fill="none" xmlns="http://www.w3.org/2000/svg">
<path d="M87.1719 10.6211C87.1719 11.3945 86.8926 12.0039 86.334 12.4492C85.7793 12.8945 85.0059 13.1172 84.0137 13.1172C83.0996 13.1172 82.291 12.9453 81.5879 12.6016V10.9141C82.166 11.1719 82.6543 11.3535 83.0527 11.459C83.4551 11.5645 83.8223 11.6172 84.1543 11.6172C84.5527 11.6172 84.8574 11.541 85.0684 11.3887C85.2832 11.2363 85.3906 11.0098 85.3906 10.709C85.3906 10.541 85.3438 10.3926 85.25 10.2637C85.1562 10.1309 85.0176 10.0039 84.834 9.88281C84.6543 9.76172 84.2852 9.56836 83.7266 9.30273C83.2031 9.05664 82.8105 8.82031 82.5488 8.59375C82.2871 8.36719 82.0781 8.10352 81.9219 7.80273C81.7656 7.50195 81.6875 7.15039 81.6875 6.74805C81.6875 5.99023 81.9434 5.39453 82.4551 4.96094C82.9707 4.52734 83.6816 4.31055 84.5879 4.31055C85.0332 4.31055 85.457 4.36328 85.8594 4.46875C86.2656 4.57422 86.6895 4.72266 87.1309 4.91406L86.5449 6.32617C86.0879 6.13867 85.709 6.00781 85.4082 5.93359C85.1113 5.85938 84.8184 5.82227 84.5293 5.82227C84.1855 5.82227 83.9219 5.90234 83.7383 6.0625C83.5547 6.22266 83.4629 6.43164 83.4629 6.68945C83.4629 6.84961 83.5 6.99023 83.5742 7.11133C83.6484 7.22852 83.7656 7.34375 83.9258 7.45703C84.0898 7.56641 84.4746 7.76562 85.0801 8.05469C85.8809 8.4375 86.4297 8.82227 86.7266 9.20898C87.0234 9.5918 87.1719 10.0625 87.1719 10.6211ZM88.5078 4.75586C88.5078 4.17383 88.832 3.88281 89.4805 3.88281C90.1289 3.88281 90.4531 4.17383 90.4531 4.75586C90.4531 5.0332 90.3711 5.25 90.207 5.40625C90.0469 5.55859 89.8047 5.63477 89.4805 5.63477C88.832 5.63477 88.5078 5.3418 88.5078 4.75586ZM90.3711 13H88.584V6.44922H90.3711V13ZM97.9531 6.44922V7.35742L96.9277 7.62109C97.1152 7.91406 97.209 8.24219 97.209 8.60547C97.209 9.30859 96.9629 9.85742 96.4707 10.252C95.9824 10.6426 95.3027 10.8379 94.4316 10.8379L94.1094 10.8203L93.8457 10.791C93.6621 10.9316 93.5703 11.0879 93.5703 11.2598C93.5703 11.5176 93.8984 11.6465 94.5547 11.6465H95.668C96.3867 11.6465 96.9336 11.8008 97.3086 12.1094C97.6875 12.418 97.877 12.8711 97.877 13.4688C97.877 14.2344 97.5566 14.8281 96.916 15.25C96.2793 15.6719 95.3633 15.8828 94.168 15.8828C93.2539 15.8828 92.5547 15.7227 92.0703 15.4023C91.5898 15.0859 91.3496 14.6406 91.3496 14.0664C91.3496 13.6719 91.4727 13.3418 91.7188 13.0762C91.9648 12.8105 92.3262 12.6211 92.8027 12.5078C92.6191 12.4297 92.459 12.3027 92.3223 12.127C92.1855 11.9473 92.1172 11.7578 92.1172 11.5586C92.1172 11.3086 92.1895 11.1016 92.334 10.9375C92.4785 10.7695 92.6875 10.6055 92.9609 10.4453C92.6172 10.2969 92.3438 10.0586 92.1406 9.73047C91.9414 9.40234 91.8418 9.01562 91.8418 8.57031C91.8418 7.85547 92.0742 7.30273 92.5391 6.91211C93.0039 6.52148 93.668 6.32617 94.5312 6.32617C94.7148 6.32617 94.9316 6.34375 95.1816 6.37891C95.4355 6.41016 95.5977 6.43359 95.668 6.44922H97.9531ZM92.8965 13.9258C92.8965 14.1719 93.0137 14.3652 93.248 14.5059C93.4863 14.6465 93.8184 14.7168 94.2441 14.7168C94.8848 14.7168 95.3867 14.6289 95.75 14.4531C96.1133 14.2773 96.2949 14.0371 96.2949 13.7324C96.2949 13.4863 96.1875 13.3164 95.9727 13.2227C95.7578 13.1289 95.4258 13.082 94.9766 13.082H94.0508C93.7227 13.082 93.4473 13.1582 93.2246 13.3105C93.0059 13.4668 92.8965 13.6719 92.8965 13.9258ZM93.5469 8.59375C93.5469 8.94922 93.627 9.23047 93.7871 9.4375C93.9512 9.64453 94.1992 9.74805 94.5312 9.74805C94.8672 9.74805 95.1133 9.64453 95.2695 9.4375C95.4258 9.23047 95.5039 8.94922 95.5039 8.59375C95.5039 7.80469 95.1797 7.41016 94.5312 7.41016C93.875 7.41016 93.5469 7.80469 93.5469 8.59375ZM105.084 13H103.297V9.17383C103.297 8.70117 103.213 8.34766 103.045 8.11328C102.877 7.875 102.609 7.75586 102.242 7.75586C101.742 7.75586 101.381 7.92383 101.158 8.25977C100.936 8.5918 100.824 9.14453 100.824 9.91797V13H99.0371V6.44922H100.402L100.643 7.28711H100.742C100.941 6.9707 101.215 6.73242 101.562 6.57227C101.914 6.4082 102.312 6.32617 102.758 6.32617C103.52 6.32617 104.098 6.5332 104.492 6.94727C104.887 7.35742 105.084 7.95117 105.084 8.72852V13ZM110.182 13V4.43359H111.998V13H110.182ZM120.061 13H118.273V9.17383C118.273 8.70117 118.189 8.34766 118.021 8.11328C117.854 7.875 117.586 7.75586 117.219 7.75586C116.719 7.75586 116.357 7.92383 116.135 8.25977C115.912 8.5918 115.801 9.14453 115.801 9.91797V13H114.014V6.44922H115.379L115.619 7.28711H115.719C115.918 6.9707 116.191 6.73242 116.539 6.57227C116.891 6.4082 117.289 6.32617 117.734 6.32617C118.496 6.32617 119.074 6.5332 119.469 6.94727C119.863 7.35742 120.061 7.95117 120.061 8.72852V13Z" fill="#FFB900"/>
</svg>
