<svg width="20" height="20" viewBox="0 0 20 20" fill="none" xmlns="http://www.w3.org/2000/svg">
<path d="M9.81692 4.87059L7.62942 2.68309C7.38567 2.43903 6.98942 2.43903 6.74567 2.68309L4.55817 4.87059C4.31411 5.11465 4.31411 5.51028 4.55817 5.75434C4.80192 5.9984 5.19817 5.9984 5.44192 5.75434L6.56254 4.63372V16.875C6.56254 17.22 6.84254 17.5 7.18754 17.5C7.53254 17.5 7.81254 17.22 7.81254 16.875V4.63372L8.93317 5.75434C9.05504 5.87653 9.21504 5.93747 9.37504 5.93747C9.53504 5.93747 9.69504 5.87653 9.81692 5.75434C10.061 5.51028 10.061 5.11465 9.81692 4.87059V4.87059Z" fill="#FFB900"/>
<path d="M15.4419 14.2456C15.1979 14.0016 14.8022 14.0016 14.5582 14.2456L13.4375 15.3663V3.125C13.4375 2.78 13.1575 2.5 12.8125 2.5C12.4675 2.5 12.1875 2.78 12.1875 3.125V15.3663L11.0669 14.2456C10.8229 14.0016 10.4269 14.0016 10.1832 14.2456C9.93911 14.4897 9.93911 14.8853 10.1832 15.1294L12.3707 17.3169C12.4929 17.4391 12.6525 17.5 12.8125 17.5C12.9725 17.5 13.1322 17.4391 13.2544 17.3169L15.4419 15.1294C15.686 14.8853 15.686 14.4897 15.4419 14.2456Z" fill="#FFB900"/>
</svg>
