<svg width="239" height="57" viewBox="0 0 239 57" fill="none" xmlns="http://www.w3.org/2000/svg">
<path d="M51.2344 14.9531L51.7969 15.0312C51.6927 15.6458 51.6406 16.0729 51.6406 16.3125C51.6406 16.625 51.8281 16.8385 52.2031 16.9531C52.5885 17.0573 53.3177 17.1094 54.3906 17.1094C55.1198 17.1094 56.125 17.0573 57.4062 16.9531L61.3906 16.6094C62.776 16.4948 64.0417 16.4375 65.1875 16.4375C68.4375 16.4375 70.9219 17.0938 72.6406 18.4062C74.3698 19.7083 75.2344 21.5833 75.2344 24.0312C75.2344 25.8438 74.8073 27.6927 73.9531 29.5781C73.1094 31.4635 71.9688 33.1042 70.5312 34.5C68.1875 36.7708 65.6302 37.9062 62.8594 37.9062C61.0573 37.9062 59.5625 37.4948 58.375 36.6719C57.1979 35.8385 55.9062 34.3073 54.5 32.0781L53.3438 30.25L53.2031 30.0156L52.8906 30.125C49.9531 31.0833 47.7656 31.5625 46.3281 31.5625C44.8073 31.5625 43.5833 31.1458 42.6562 30.3125C41.7292 29.4792 41.2656 28.3854 41.2656 27.0312C41.2656 25.0938 42.1198 23.5781 43.8281 22.4844C44.9844 21.7344 46.1771 21.3594 47.4062 21.3594C48.6458 21.3594 49.7135 21.8177 50.6094 22.7344C51.5156 23.6406 52.8281 25.5833 54.5469 28.5625L54.7344 28.875L55.3125 28.6562C59.1667 27.1979 62.9062 25.6406 66.5312 23.9844L70.0938 22.3594L70.5781 22.1406C70.6198 22.2865 70.6406 22.4219 70.6406 22.5469C70.6406 23.2344 70.2604 24.6354 69.5 26.75C68.8021 28.6875 68.4531 29.8385 68.4531 30.2031C68.4531 30.5156 68.651 30.6719 69.0469 30.6719C69.2448 30.6719 69.526 30.6146 69.8906 30.5L70.0625 31.0625L69.7031 31.1875C68.849 31.5 67.8333 31.8438 66.6562 32.2188L66.25 32.3594C66.2708 32.0885 66.3177 31.8021 66.3906 31.5L66.5156 30.9688C66.6615 30.3646 67.0365 29.1979 67.6406 27.4688C68.1927 25.875 68.4688 24.9531 68.4688 24.7031C68.4688 24.3073 68.3125 24.1094 68 24.1094C67.8125 24.1094 67.4844 24.2135 67.0156 24.4219L65.875 24.9219L62.3594 26.4531C59.8594 27.5365 57.5417 28.4688 55.4062 29.25L55.0469 29.375C56.5365 32.0104 57.9635 33.901 59.3281 35.0469C60.6927 36.1823 62.2083 36.75 63.875 36.75C65.3646 36.75 66.8021 36.349 68.1875 35.5469C69.5833 34.7448 70.724 33.6562 71.6094 32.2812C73.1198 29.9271 73.875 27.5208 73.875 25.0625C73.875 22.9167 73.1198 21.2656 71.6094 20.1094C70.099 18.9427 67.9427 18.3594 65.1406 18.3594C64.1406 18.3594 62.9427 18.4219 61.5469 18.5469L56.1875 19.0625C55.2708 19.1458 54.3229 19.1875 53.3438 19.1875C52.1562 19.1875 51.151 19.0417 50.3281 18.75L50.4062 18.4531C50.5625 17.8906 50.6979 17.3646 50.8125 16.875L51.1719 15.2031L51.2344 14.9531ZM52.875 29.5L52.5156 28.9062C50.9844 26.3854 49.776 24.7135 48.8906 23.8906C48.0052 23.0677 46.9635 22.6562 45.7656 22.6562C44.7552 22.6562 43.8802 23.0312 43.1406 23.7812C42.401 24.5208 42.0312 25.3958 42.0312 26.4062C42.0312 27.6562 42.5 28.6875 43.4375 29.5C44.3854 30.3021 45.5833 30.7031 47.0312 30.7031C48.6979 30.7031 50.6458 30.3021 52.875 29.5ZM84.5312 25.0781L83.9688 26.6562C83.5729 26.5729 83.224 26.5312 82.9219 26.5312C81.7135 26.5312 80.4219 27.4583 79.0469 29.3125C78.401 30.1979 77.8438 31.1615 77.375 32.2031C76.9167 33.2448 76.3438 34.8333 75.6562 36.9688L75.4844 37.5C74.8073 37.6458 74.1615 37.8229 73.5469 38.0312L73.7188 37.5625L75.0938 33.9062C76.3958 30.3854 77.0469 28.3125 77.0469 27.6875C77.0469 27.3646 76.9062 27.2031 76.625 27.2031C76.4688 27.2031 76.1198 27.3438 75.5781 27.625L75.375 27.1406C76.8333 26.4323 78.1406 25.6458 79.2969 24.7812C79.3385 24.9688 79.3594 25.1406 79.3594 25.2969C79.3594 26.099 79 27.4375 78.2812 29.3125L78.6562 28.875C81.0833 26.2083 82.8021 24.875 83.8125 24.875C84.0312 24.875 84.2708 24.9427 84.5312 25.0781ZM90.4844 31.0781C90.6302 31.3698 90.7031 31.6302 90.7031 31.8594C90.7031 32.8594 90.0104 34.0104 88.625 35.3125C86.6042 37.2188 84.8854 38.1719 83.4688 38.1719C82.25 38.1719 81.6406 37.4792 81.6406 36.0938C81.6406 34.5312 82.1146 32.8906 83.0625 31.1719C84.0208 29.4531 85.2448 28.0365 86.7344 26.9219C88.5469 25.5677 90.1615 24.8906 91.5781 24.8906C92.401 24.8906 92.8125 25.1927 92.8125 25.7969C92.8125 26.1927 92.6146 26.6719 92.2188 27.2344C91.8229 27.7865 91.3281 28.2865 90.7344 28.7344C90.1823 29.1406 89.4792 29.5156 88.625 29.8594C87.7812 30.2031 87.1302 30.375 86.6719 30.375C86.1823 30.375 85.8438 30.1042 85.6562 29.5625C86.0938 29.625 86.4427 29.6562 86.7031 29.6562C87.7448 29.6562 88.7031 29.3594 89.5781 28.7656C90.4635 28.1615 90.9062 27.5104 90.9062 26.8125C90.9062 26.3125 90.5833 26.0625 89.9375 26.0625C88.7812 26.0625 87.599 26.7708 86.3906 28.1875C85.5365 29.1875 84.8333 30.3542 84.2812 31.6875C83.7292 33.0208 83.4531 34.2083 83.4531 35.25C83.4531 36.3229 83.901 36.8594 84.7969 36.8594C85.776 36.8594 86.7917 36.3229 87.8438 35.25C88.9062 34.1667 89.7865 32.776 90.4844 31.0781ZM101.516 35.6094L101.797 36.0156C100.703 36.8385 99.2083 37.4844 97.3125 37.9531C97.3646 36.901 97.9844 35.0885 99.1719 32.5156C97.8281 34.099 96.4427 35.4115 95.0156 36.4531C93.599 37.4948 92.474 38.0156 91.6406 38.0156C90.9115 38.0156 90.5469 37.5521 90.5469 36.625C90.5469 35.0521 91.25 33.3542 92.6562 31.5312C94.0625 29.6979 95.8281 28.1927 97.9531 27.0156C100.349 25.6719 102.734 25 105.109 25C105.443 25 105.609 25.125 105.609 25.375C105.609 25.5833 105.453 25.9792 105.141 26.5625C104.432 26.4375 103.745 26.375 103.078 26.375C99.901 26.375 97.1667 27.6094 94.875 30.0781C93.1875 31.8906 92.3438 33.6875 92.3438 35.4688C92.3438 36.3021 92.651 36.7188 93.2656 36.7188C93.7865 36.7188 94.5365 36.2708 95.5156 35.375C96.4948 34.4688 97.3698 33.4219 98.1406 32.2344C99.2031 30.5885 99.9271 28.8802 100.312 27.1094C100.76 27.3802 100.984 27.8802 100.984 28.6094C100.984 29.6198 100.474 30.7812 99.4531 32.0938C99.9531 32.0521 100.573 31.9062 101.312 31.6562L101.188 31.9219C100.198 34.1406 99.7031 35.4375 99.7031 35.8125C99.7031 36.1146 99.8438 36.2552 100.125 36.2344C100.385 36.2135 100.849 36.0052 101.516 35.6094ZM118.531 35.6562L118.781 36.0625C117.677 36.8542 116.365 37.5 114.844 38C115.01 35.7292 116.078 32.5729 118.047 28.5312L118.5 27.5625C118.583 27.4062 118.625 27.276 118.625 27.1719C118.625 26.9219 118.516 26.7969 118.297 26.7969C117.849 26.7969 116.964 27.4635 115.641 28.7969C114.682 29.7552 113.776 30.9792 112.922 32.4688C112.078 33.9583 111.391 35.5104 110.859 37.125C110.245 37.2812 109.51 37.5729 108.656 38L108.828 37.5625L109.766 35.2656C110.453 33.5677 111.078 31.8906 111.641 30.2344C112.203 28.5781 112.484 27.5729 112.484 27.2188C112.484 26.9167 112.344 26.7656 112.062 26.7656C111.708 26.7656 111.12 27.1875 110.297 28.0312C109.474 28.8646 108.708 29.8229 108 30.9062C106.771 32.8021 105.703 34.901 104.797 37.2031C104.661 37.2448 104.583 37.2708 104.562 37.2812L103.734 37.5781C103.401 37.6927 103.057 37.8229 102.703 37.9688C102.953 37.4375 103.443 36.2917 104.172 34.5312L105.391 31.5938C106.307 29.3646 106.781 27.974 106.812 27.4219C106.833 27.0469 106.682 26.8594 106.359 26.8594C106.151 26.8594 105.839 26.9531 105.422 27.1406L105.234 26.6406C106.141 26.2865 107.307 25.6667 108.734 24.7812L109.078 24.5625C109.109 24.8021 109.125 25.0052 109.125 25.1719C109.125 26.0573 108.583 27.8177 107.5 30.4531C110.396 26.7552 112.641 24.9062 114.234 24.9062C114.703 24.9062 114.938 25.1562 114.938 25.6562C114.938 26.4062 114.411 28.0729 113.359 30.6562C114.557 29.0833 115.854 27.7292 117.25 26.5938C118.656 25.4583 119.734 24.8906 120.484 24.8906C120.922 24.8906 121.141 25.1094 121.141 25.5469C121.141 25.849 120.745 26.8438 119.953 28.5312C118.047 32.625 117.094 35 117.094 35.6562C117.094 35.9375 117.229 36.0781 117.5 36.0781C117.698 36.0781 118.042 35.9375 118.531 35.6562ZM147.234 18.7344C145.224 19.7865 143.536 21.4792 142.172 23.8125C140.807 26.1458 140.125 28.5104 140.125 30.9062C140.125 32.6354 140.719 33.974 141.906 34.9219C143.104 35.8594 144.802 36.3281 147 36.3281C149.771 36.3281 152.068 35.5156 153.891 33.8906C155.724 32.2656 156.818 30.0573 157.172 27.2656C157.443 27.8385 157.578 28.3698 157.578 28.8594C157.578 30.2656 156.688 31.8854 154.906 33.7188C152.104 36.6146 149.224 38.0625 146.266 38.0625C145.047 38.0625 143.854 37.8646 142.688 37.4688C141.531 37.0625 140.604 36.5208 139.906 35.8438C138.76 34.7604 138.188 33.2917 138.188 31.4375C138.188 29.8021 138.536 28.1406 139.234 26.4531C139.932 24.7656 140.901 23.2344 142.141 21.8594C143.203 20.6927 144.615 19.5781 146.375 18.5156C143.74 17.776 141.693 17.4062 140.234 17.4062C138.141 17.4062 136.438 18.0521 135.125 19.3438C133.823 20.625 133.172 22.2969 133.172 24.3594C133.172 25.1302 133.297 26 133.547 26.9688C132.568 26.3438 132.078 25.4531 132.078 24.2969C132.078 22.7135 132.823 21.0781 134.312 19.3906C136.458 16.9531 138.833 15.7344 141.438 15.7344C143.135 15.7344 145.651 16.2448 148.984 17.2656C149.203 17.1927 149.333 17.151 149.375 17.1406L151.453 16.4219C153.286 15.7969 155.193 15.4844 157.172 15.4844C158.661 15.4844 159.859 15.7292 160.766 16.2188C161.682 16.6979 162.141 17.3333 162.141 18.125C162.141 19.1042 161.224 19.8385 159.391 20.3281C158.276 20.6198 157.464 20.9427 156.953 21.2969L156.484 21.1719L155.016 20.8125C153.214 20.375 152.115 20.099 151.719 19.9844L147.891 18.9062C147.849 18.8958 147.63 18.8385 147.234 18.7344ZM150.031 17.5312C151.521 18.0208 153.214 18.474 155.109 18.8906C157.016 19.3073 158.328 19.5156 159.047 19.5156C159.714 19.5156 160.271 19.4062 160.719 19.1875C161.167 18.9688 161.391 18.6979 161.391 18.375C161.391 17.8021 160.896 17.3073 159.906 16.8906C158.917 16.4635 157.74 16.25 156.375 16.25C154.198 16.25 152.083 16.6771 150.031 17.5312ZM170.281 25.1094C169.552 26.5052 168.667 28.4688 167.625 31C166.583 33.5312 166.052 35.0052 166.031 35.4219C166.021 35.7448 166.198 35.9062 166.562 35.9062C166.844 35.9062 167.255 35.8021 167.797 35.5938L168 36.0156C167.24 36.4115 165.984 36.9427 164.234 37.6094L163.812 37.7656C164.083 36.0677 164.604 34.2552 165.375 32.3281C164.031 34.026 162.755 35.3594 161.547 36.3281C160.349 37.2865 159.359 37.7656 158.578 37.7656C157.891 37.7656 157.547 37.4062 157.547 36.6875C157.547 35.8229 158.188 34.0469 159.469 31.3594L160.719 28.7344C161.104 27.9219 161.307 27.3385 161.328 26.9844C161.349 26.6406 161.172 26.4688 160.797 26.4688C160.63 26.4688 160.339 26.5312 159.922 26.6562L159.797 26.1875L160.047 26.1094C161.505 25.6823 162.719 25.2604 163.688 24.8438C163.688 25.6771 163.224 27.0469 162.297 28.9531L160.938 31.7344C159.896 33.8698 159.375 35.1771 159.375 35.6562C159.375 36.1042 159.573 36.3281 159.969 36.3281C160.979 36.3281 162.318 35.276 163.984 33.1719C165.651 31.0573 166.979 28.7292 167.969 26.1875L168.172 25.6875C168.776 25.625 169.479 25.4323 170.281 25.1094ZM179.625 35.7344L179.875 36.1562C178.625 37.0521 177.146 37.6771 175.438 38.0312C175.656 36.3125 176.667 33.7031 178.469 30.2031L179.484 28.2656C179.828 27.599 180 27.1719 180 26.9844C180 26.7031 179.885 26.5625 179.656 26.5625C179.333 26.5625 178.719 26.9271 177.812 27.6562C176.917 28.3854 176.042 29.2292 175.188 30.1875C173.417 32.1667 171.932 34.5417 170.734 37.3125C170.245 37.4271 169.552 37.6771 168.656 38.0625C169.615 36.1042 170.578 33.9062 171.547 31.4688C172.526 29.0208 173.016 27.5729 173.016 27.125C173.016 26.75 172.865 26.5625 172.562 26.5625C172.406 26.5625 172.068 26.6406 171.547 26.7969C171.505 26.8073 171.448 26.8229 171.375 26.8438L171.281 26.3438C172.74 25.9271 174.057 25.4583 175.234 24.9375L175.438 24.8438C175.458 24.9792 175.469 25.0729 175.469 25.125C175.469 26.0521 174.786 28.026 173.422 31.0469L173.203 31.5156L173.469 31.2188C175.177 29.2708 176.75 27.7396 178.188 26.625C179.635 25.5 180.766 24.9375 181.578 24.9375C182.089 24.9375 182.344 25.1979 182.344 25.7188C182.344 26.2604 181.661 27.8594 180.297 30.5156C178.661 33.6823 177.844 35.4635 177.844 35.8594C177.844 36.1615 177.984 36.3125 178.266 36.3125C178.578 36.3125 179.005 36.1406 179.547 35.7969L179.625 35.7344ZM190.266 31.0781C190.411 31.3698 190.484 31.6302 190.484 31.8594C190.484 32.8594 189.792 34.0104 188.406 35.3125C186.385 37.2188 184.667 38.1719 183.25 38.1719C182.031 38.1719 181.422 37.4792 181.422 36.0938C181.422 34.5312 181.896 32.8906 182.844 31.1719C183.802 29.4531 185.026 28.0365 186.516 26.9219C188.328 25.5677 189.943 24.8906 191.359 24.8906C192.182 24.8906 192.594 25.1927 192.594 25.7969C192.594 26.1927 192.396 26.6719 192 27.2344C191.604 27.7865 191.109 28.2865 190.516 28.7344C189.964 29.1406 189.26 29.5156 188.406 29.8594C187.562 30.2031 186.911 30.375 186.453 30.375C185.964 30.375 185.625 30.1042 185.438 29.5625C185.875 29.625 186.224 29.6562 186.484 29.6562C187.526 29.6562 188.484 29.3594 189.359 28.7656C190.245 28.1615 190.688 27.5104 190.688 26.8125C190.688 26.3125 190.365 26.0625 189.719 26.0625C188.562 26.0625 187.38 26.7708 186.172 28.1875C185.318 29.1875 184.615 30.3542 184.062 31.6875C183.51 33.0208 183.234 34.2083 183.234 35.25C183.234 36.3229 183.682 36.8594 184.578 36.8594C185.557 36.8594 186.573 36.3229 187.625 35.25C188.688 34.1667 189.568 32.776 190.266 31.0781ZM200.203 25.0469L200.031 25.3438L199.266 26.625C198.995 27.0833 198.708 27.5417 198.406 28L198.234 28.25L197.844 27.9844C197.896 27.8698 197.932 27.7865 197.953 27.7344C198.172 27.2865 198.281 26.9688 198.281 26.7812C198.281 26.3854 197.932 26.1875 197.234 26.1875C196.599 26.1875 196.042 26.4271 195.562 26.9062C195.083 27.375 194.844 27.9219 194.844 28.5469C194.844 28.8802 194.948 29.276 195.156 29.7344L195.906 31.3438C196.156 31.8854 196.281 32.4792 196.281 33.125C196.281 34.3854 195.589 35.5781 194.203 36.7031C193.005 37.6719 191.943 38.1562 191.016 38.1562C190.484 38.1562 190.047 38.026 189.703 37.7656C189.359 37.4948 189.188 37.151 189.188 36.7344C189.188 36.2448 189.312 35.7708 189.562 35.3125C190.208 36.4167 191.01 36.9688 191.969 36.9688C192.729 36.9688 193.401 36.7083 193.984 36.1875C194.568 35.6667 194.859 35.0625 194.859 34.375C194.859 34.0104 194.755 33.5938 194.547 33.125L193.625 31.1094C193.448 30.7135 193.359 30.276 193.359 29.7969C193.359 28.9323 193.839 27.9635 194.797 26.8906C195.443 26.1823 196.083 25.6875 196.719 25.4062C197.365 25.1146 198.172 24.9688 199.141 24.9688C199.516 24.9688 199.87 24.9948 200.203 25.0469Z" fill="#FFB900"/>
<path d="M17.5029 12.4752C10.7418 12.382 4.17657 17.1464 2.23175 23.6397C0.335473 29.4444 2.10205 36.3011 6.69887 40.37C10.7393 44.083 16.7641 45.528 22.0058 43.9328C26.9638 42.4841 31.1542 38.5398 32.7476 33.6001C34.3563 28.7868 33.5503 23.2044 30.5064 19.1042C27.5519 15.0172 22.5762 12.4179 17.5029 12.4752ZM17.6599 12.9619C24.2191 12.9518 30.5189 17.5856 32.3743 23.893C34.073 29.3113 32.5519 35.6423 28.4376 39.5892C24.6424 43.3311 18.8483 44.9881 13.6757 43.5952C8.37509 42.255 3.89718 37.9479 2.51682 32.6347C1.17735 27.7446 2.3499 22.1972 5.72354 18.3814C8.67456 14.9701 13.1335 12.883 17.6599 12.9619Z" fill="#FFB900"/>
<path d="M17.5237 23.4453C14.9235 23.3952 12.5422 25.6588 12.454 28.2578C12.3035 30.5959 13.9476 32.9323 16.2372 33.4817C18.3376 34.0529 20.7531 33.1456 21.8866 31.2551C23.0184 29.458 22.9004 26.9437 21.4992 25.3125C20.5326 24.1466 19.0483 23.419 17.5237 23.4453ZM17.5275 23.9387C19.9095 23.8647 22.1077 25.9431 22.165 28.3266C22.2893 30.5076 20.6702 32.6559 18.5087 33.0623C16.514 33.4919 14.2876 32.4539 13.4175 30.5904C12.5069 28.7593 12.9624 26.3324 14.5717 25.0364C15.3903 24.3437 16.4535 23.9406 17.5275 23.9387Z" fill="#FFB900"/>
<path d="M17.4067 26.4042C15.9559 26.44 14.9565 28.2197 15.6231 29.4928C16.1456 30.5921 17.6564 30.9046 18.6588 30.2904C19.6754 29.7395 19.9 28.2887 19.2602 27.3702C18.8696 26.7398 18.1536 26.3444 17.4067 26.4042ZM17.5582 27.6354C18.434 27.6367 18.697 29.1284 17.8124 29.3577C17.17 29.5555 16.3483 28.8297 16.7321 28.1765C16.8843 27.8685 17.2047 27.626 17.5582 27.6354Z" fill="#FFB900"/>
<path d="M9.82082 31.5178C9.42117 31.5192 9.37826 32.0224 9.56075 32.2846C10.2077 33.5182 11.0639 34.6646 12.1883 35.5048C12.809 35.96 13.4982 36.3943 14.2351 36.593C14.6308 36.5061 14.5687 35.8448 14.1629 35.8353C12.3246 34.9995 10.8794 33.4205 10.0534 31.6067C9.9888 31.5521 9.90549 31.5194 9.82082 31.5178V31.5178Z" fill="#FFB900"/>
<path d="M5.94921 31.5172C5.48746 31.5424 5.47998 32.1454 5.69662 32.437C6.97217 36.2007 10.1039 39.3632 13.9745 40.405C14.2046 40.5524 14.4857 40.4296 14.4958 40.1537C14.5288 39.8766 14.2735 39.659 14.0103 39.6728C10.2945 38.5546 7.32291 35.4094 6.22317 31.7018C6.16571 31.6049 6.0699 31.5121 5.94921 31.5172V31.5172Z" fill="#FFB900"/>
<path d="M20.8726 20.442C20.4506 20.429 20.4054 21.1417 20.8307 21.1917C22.6819 22.0079 24.1486 23.5776 24.961 25.4163C25.2346 25.726 25.8066 25.2841 25.539 24.9415C24.6362 22.9269 22.963 21.2275 20.8946 20.4418L20.8726 20.442Z" fill="#FFB900"/>
<path d="M20.8413 16.5543C20.4147 16.5831 20.4353 17.3125 20.8791 17.3018C24.6012 18.4158 27.679 21.489 28.7503 25.2274C28.8281 25.576 29.312 25.6223 29.4555 25.2929C29.5649 24.9359 29.2708 24.5781 29.2051 24.2372C27.8678 20.5822 24.7208 17.6148 20.9566 16.5654C20.9185 16.5616 20.88 16.552 20.8413 16.5543Z" fill="#FFB900"/>
<path d="M221.503 12.4752C214.742 12.382 208.177 17.1464 206.232 23.6397C204.335 29.4444 206.102 36.3011 210.699 40.37C214.739 44.083 220.764 45.528 226.006 43.9328C230.964 42.4841 235.154 38.5398 236.748 33.6001C238.356 28.7868 237.55 23.2044 234.506 19.1042C231.552 15.0172 226.576 12.4179 221.503 12.4752ZM221.66 12.9619C228.219 12.9518 234.519 17.5856 236.374 23.893C238.073 29.3113 236.552 35.6423 232.438 39.5892C228.642 43.3311 222.848 44.9881 217.676 43.5952C212.375 42.255 207.897 37.9479 206.517 32.6347C205.177 27.7446 206.35 22.1972 209.724 18.3814C212.675 14.9701 217.133 12.883 221.66 12.9619Z" fill="#FFB900"/>
<path d="M221.524 23.4453C218.924 23.3952 216.542 25.6588 216.454 28.2578C216.303 30.5959 217.948 32.9323 220.237 33.4817C222.338 34.0529 224.753 33.1456 225.887 31.2551C227.018 29.458 226.9 26.9437 225.499 25.3125C224.533 24.1466 223.048 23.419 221.524 23.4453ZM221.528 23.9387C223.909 23.8647 226.108 25.9431 226.165 28.3266C226.289 30.5076 224.67 32.6559 222.509 33.0623C220.514 33.4919 218.288 32.4539 217.417 30.5904C216.507 28.7593 216.962 26.3324 218.572 25.0364C219.39 24.3437 220.453 23.9406 221.528 23.9387Z" fill="#FFB900"/>
<path d="M221.407 26.4042C219.956 26.44 218.957 28.2197 219.623 29.4928C220.146 30.5921 221.656 30.9046 222.659 30.2904C223.675 29.7395 223.9 28.2887 223.26 27.3702C222.87 26.7398 222.154 26.3444 221.407 26.4042ZM221.558 27.6354C222.434 27.6367 222.697 29.1284 221.812 29.3577C221.17 29.5555 220.348 28.8297 220.732 28.1765C220.884 27.8685 221.205 27.626 221.558 27.6354Z" fill="#FFB900"/>
<path d="M213.821 31.5178C213.421 31.5192 213.378 32.0224 213.561 32.2846C214.208 33.5182 215.064 34.6646 216.188 35.5048C216.809 35.96 217.498 36.3943 218.235 36.593C218.631 36.5061 218.569 35.8448 218.163 35.8353C216.325 34.9995 214.879 33.4205 214.053 31.6067C213.989 31.5521 213.905 31.5194 213.821 31.5178V31.5178Z" fill="#FFB900"/>
<path d="M209.949 31.5172C209.487 31.5424 209.48 32.1454 209.697 32.437C210.972 36.2007 214.104 39.3632 217.974 40.405C218.205 40.5524 218.486 40.4296 218.496 40.1537C218.529 39.8766 218.273 39.659 218.01 39.6728C214.295 38.5546 211.323 35.4094 210.223 31.7018C210.166 31.6049 210.07 31.5121 209.949 31.5172V31.5172Z" fill="#FFB900"/>
<path d="M224.873 20.442C224.451 20.429 224.405 21.1417 224.831 21.1917C226.682 22.0079 228.149 23.5776 228.961 25.4163C229.235 25.726 229.807 25.2841 229.539 24.9415C228.636 22.9269 226.963 21.2275 224.895 20.4418L224.873 20.442Z" fill="#FFB900"/>
<path d="M224.841 16.5543C224.415 16.5831 224.435 17.3125 224.879 17.3018C228.601 18.4158 231.679 21.489 232.75 25.2274C232.828 25.576 233.312 25.6223 233.455 25.2929C233.565 24.9359 233.271 24.5781 233.205 24.2372C231.868 20.5822 228.721 17.6148 224.957 16.5654C224.918 16.5616 224.88 16.552 224.841 16.5543Z" fill="#FFB900"/>
</svg>
