<svg width="118" height="55" viewBox="0 0 118 55" fill="none" xmlns="http://www.w3.org/2000/svg">
<g filter="url(#filter0_d)">
<path d="M99 46.5L4.5 46.5L4.5 0.5L99 0.5C107.008 0.5 113.5 6.99187 113.5 15V32C113.5 40.0081 107.008 46.5 99 46.5Z" fill="black" stroke="#FFB900"/>
<path d="M25.4961 23.7168L27.7812 19.4336H28.8594L26 24.6777V28H24.9922V24.7246L22.1387 19.4336H23.2285L25.4961 23.7168ZM35.4395 24.7832C35.4395 25.8301 35.1758 26.6484 34.6484 27.2383C34.1211 27.8242 33.3926 28.1172 32.4629 28.1172C31.8887 28.1172 31.3789 27.9824 30.9336 27.7129C30.4883 27.4434 30.1445 27.0566 29.9023 26.5527C29.6602 26.0488 29.5391 25.459 29.5391 24.7832C29.5391 23.7363 29.8008 22.9219 30.3242 22.3398C30.8477 21.7539 31.5742 21.4609 32.5039 21.4609C33.4023 21.4609 34.1152 21.7598 34.6426 22.3574C35.1738 22.9551 35.4395 23.7637 35.4395 24.7832ZM30.5469 24.7832C30.5469 25.6035 30.7109 26.2285 31.0391 26.6582C31.3672 27.0879 31.8496 27.3027 32.4863 27.3027C33.123 27.3027 33.6055 27.0898 33.9336 26.6641C34.2656 26.2344 34.4316 25.6074 34.4316 24.7832C34.4316 23.9668 34.2656 23.3477 33.9336 22.9258C33.6055 22.5 33.1191 22.2871 32.4746 22.2871C31.8379 22.2871 31.3574 22.4961 31.0332 22.9141C30.709 23.332 30.5469 23.9551 30.5469 24.7832ZM38.0645 21.5781V25.7441C38.0645 26.2676 38.1836 26.6582 38.4219 26.916C38.6602 27.1738 39.0332 27.3027 39.541 27.3027C40.2129 27.3027 40.7031 27.1191 41.0117 26.752C41.3242 26.3848 41.4805 25.7852 41.4805 24.9531V21.5781H42.4531V28H41.6504L41.5098 27.1387H41.457C41.2578 27.4551 40.9805 27.6973 40.625 27.8652C40.2734 28.0332 39.8711 28.1172 39.418 28.1172C38.6367 28.1172 38.0508 27.9316 37.6602 27.5605C37.2734 27.1895 37.0801 26.5957 37.0801 25.7793V21.5781H38.0645ZM47.4512 21.4609C47.7363 21.4609 47.9922 21.4844 48.2188 21.5312L48.084 22.4336C47.8184 22.375 47.584 22.3457 47.3809 22.3457C46.8613 22.3457 46.416 22.5566 46.0449 22.9785C45.6777 23.4004 45.4941 23.9258 45.4941 24.5547V28H44.5215V21.5781H45.3242L45.4355 22.7676H45.4824C45.7207 22.3496 46.0078 22.0273 46.3438 21.8008C46.6797 21.5742 47.0488 21.4609 47.4512 21.4609ZM56.4863 28L56.293 27.0859H56.2461C55.9258 27.4883 55.6055 27.7617 55.2852 27.9062C54.9688 28.0469 54.5723 28.1172 54.0957 28.1172C53.459 28.1172 52.959 27.9531 52.5957 27.625C52.2363 27.2969 52.0566 26.8301 52.0566 26.2246C52.0566 24.9277 53.0938 24.248 55.168 24.1855L56.2578 24.1504V23.752C56.2578 23.248 56.1484 22.877 55.9297 22.6387C55.7148 22.3965 55.3691 22.2754 54.8926 22.2754C54.3574 22.2754 53.752 22.4395 53.0762 22.7676L52.7773 22.0234C53.0938 21.8516 53.4395 21.7168 53.8145 21.6191C54.1934 21.5215 54.5723 21.4727 54.9512 21.4727C55.7168 21.4727 56.2832 21.6426 56.6504 21.9824C57.0215 22.3223 57.207 22.8672 57.207 23.6172V28H56.4863ZM54.2891 27.3145C54.8945 27.3145 55.3691 27.1484 55.7129 26.8164C56.0605 26.4844 56.2344 26.0195 56.2344 25.4219V24.8418L55.2617 24.8828C54.4883 24.9102 53.9297 25.0312 53.5859 25.2461C53.2461 25.457 53.0762 25.7871 53.0762 26.2363C53.0762 26.5879 53.1816 26.8555 53.3926 27.0391C53.6074 27.2227 53.9062 27.3145 54.2891 27.3145ZM61.7832 28.1172C60.8535 28.1172 60.1328 27.832 59.6211 27.2617C59.1133 26.6875 58.8594 25.877 58.8594 24.8301C58.8594 23.7559 59.1172 22.9258 59.6328 22.3398C60.1523 21.7539 60.8906 21.4609 61.8477 21.4609C62.1562 21.4609 62.4648 21.4941 62.7734 21.5605C63.082 21.627 63.3242 21.7051 63.5 21.7949L63.2012 22.6211C62.9863 22.5352 62.752 22.4648 62.498 22.4102C62.2441 22.3516 62.0195 22.3223 61.8242 22.3223C60.5195 22.3223 59.8672 23.1543 59.8672 24.8184C59.8672 25.6074 60.0254 26.2129 60.3418 26.6348C60.6621 27.0566 61.1348 27.2676 61.7598 27.2676C62.2949 27.2676 62.8438 27.1523 63.4062 26.9219V27.7832C62.9766 28.0059 62.4355 28.1172 61.7832 28.1172ZM67.502 28.1172C66.5723 28.1172 65.8516 27.832 65.3398 27.2617C64.832 26.6875 64.5781 25.877 64.5781 24.8301C64.5781 23.7559 64.8359 22.9258 65.3516 22.3398C65.8711 21.7539 66.6094 21.4609 67.5664 21.4609C67.875 21.4609 68.1836 21.4941 68.4922 21.5605C68.8008 21.627 69.043 21.7051 69.2188 21.7949L68.9199 22.6211C68.7051 22.5352 68.4707 22.4648 68.2168 22.4102C67.9629 22.3516 67.7383 22.3223 67.543 22.3223C66.2383 22.3223 65.5859 23.1543 65.5859 24.8184C65.5859 25.6074 65.7441 26.2129 66.0605 26.6348C66.3809 27.0566 66.8535 27.2676 67.4785 27.2676C68.0137 27.2676 68.5625 27.1523 69.125 26.9219V27.7832C68.6953 28.0059 68.1543 28.1172 67.502 28.1172ZM76.1973 24.7832C76.1973 25.8301 75.9336 26.6484 75.4062 27.2383C74.8789 27.8242 74.1504 28.1172 73.2207 28.1172C72.6465 28.1172 72.1367 27.9824 71.6914 27.7129C71.2461 27.4434 70.9023 27.0566 70.6602 26.5527C70.418 26.0488 70.2969 25.459 70.2969 24.7832C70.2969 23.7363 70.5586 22.9219 71.082 22.3398C71.6055 21.7539 72.332 21.4609 73.2617 21.4609C74.1602 21.4609 74.873 21.7598 75.4004 22.3574C75.9316 22.9551 76.1973 23.7637 76.1973 24.7832ZM71.3047 24.7832C71.3047 25.6035 71.4688 26.2285 71.7969 26.6582C72.125 27.0879 72.6074 27.3027 73.2441 27.3027C73.8809 27.3027 74.3633 27.0898 74.6914 26.6641C75.0234 26.2344 75.1895 25.6074 75.1895 24.7832C75.1895 23.9668 75.0234 23.3477 74.6914 22.9258C74.3633 22.5 73.877 22.2871 73.2324 22.2871C72.5957 22.2871 72.1152 22.4961 71.791 22.9141C71.4668 23.332 71.3047 23.9551 71.3047 24.7832ZM78.8223 21.5781V25.7441C78.8223 26.2676 78.9414 26.6582 79.1797 26.916C79.418 27.1738 79.791 27.3027 80.2988 27.3027C80.9707 27.3027 81.4609 27.1191 81.7695 26.752C82.082 26.3848 82.2383 25.7852 82.2383 24.9531V21.5781H83.2109V28H82.4082L82.2676 27.1387H82.2148C82.0156 27.4551 81.7383 27.6973 81.3828 27.8652C81.0312 28.0332 80.6289 28.1172 80.1758 28.1172C79.3945 28.1172 78.8086 27.9316 78.418 27.5605C78.0312 27.1895 77.8379 26.5957 77.8379 25.7793V21.5781H78.8223ZM89.6738 28V23.8457C89.6738 23.3223 89.5547 22.9316 89.3164 22.6738C89.0781 22.416 88.7051 22.2871 88.1973 22.2871C87.5254 22.2871 87.0332 22.4688 86.7207 22.832C86.4082 23.1953 86.252 23.7949 86.252 24.6309V28H85.2793V21.5781H86.0703L86.2285 22.457H86.2754C86.4746 22.1406 86.7539 21.8965 87.1133 21.7246C87.4727 21.5488 87.873 21.4609 88.3145 21.4609C89.0879 21.4609 89.6699 21.6484 90.0605 22.0234C90.4512 22.3945 90.6465 22.9902 90.6465 23.8105V28H89.6738ZM94.7246 27.3145C94.8965 27.3145 95.0625 27.3027 95.2227 27.2793C95.3828 27.252 95.5098 27.2246 95.6035 27.1973V27.9414C95.498 27.9922 95.3418 28.0332 95.1348 28.0645C94.9316 28.0996 94.748 28.1172 94.584 28.1172C93.3418 28.1172 92.7207 27.4629 92.7207 26.1543V22.334H91.8008V21.8652L92.7207 21.4609L93.1309 20.0898H93.6934V21.5781H95.5566V22.334H93.6934V26.1133C93.6934 26.5 93.7852 26.7969 93.9688 27.0039C94.1523 27.2109 94.4043 27.3145 94.7246 27.3145Z" fill="#FFB900"/>
</g>
<defs>
<filter id="filter0_d" x="0" y="0" width="118" height="55" filterUnits="userSpaceOnUse" color-interpolation-filters="sRGB">
<feFlood flood-opacity="0" result="BackgroundImageFix"/>
<feColorMatrix in="SourceAlpha" type="matrix" values="0 0 0 0 0 0 0 0 0 0 0 0 0 0 0 0 0 0 127 0"/>
<feOffset dy="4"/>
<feGaussianBlur stdDeviation="2"/>
<feColorMatrix type="matrix" values="0 0 0 0 0 0 0 0 0 0 0 0 0 0 0 0 0 0 0.25 0"/>
<feBlend mode="normal" in2="BackgroundImageFix" result="effect1_dropShadow"/>
<feBlend mode="normal" in="SourceGraphic" in2="effect1_dropShadow" result="shape"/>
</filter>
</defs>
</svg>
