<svg width="110" height="47" viewBox="0 0 110 47" fill="none" xmlns="http://www.w3.org/2000/svg">
<path d="M95 46.5L0.5 46.5L0.5 0.5L95 0.5C103.008 0.5 109.5 6.99187 109.5 15V32C109.5 40.0081 103.008 46.5 95 46.5Z" fill="black" stroke="#FFB900"/>
<path d="M21.4961 23.7168L23.7812 19.4336H24.8594L22 24.6777V28H20.9922V24.7246L18.1387 19.4336H19.2285L21.4961 23.7168ZM31.4395 24.7832C31.4395 25.8301 31.1758 26.6484 30.6484 27.2383C30.1211 27.8242 29.3926 28.1172 28.4629 28.1172C27.8887 28.1172 27.3789 27.9824 26.9336 27.7129C26.4883 27.4434 26.1445 27.0566 25.9023 26.5527C25.6602 26.0488 25.5391 25.459 25.5391 24.7832C25.5391 23.7363 25.8008 22.9219 26.3242 22.3398C26.8477 21.7539 27.5742 21.4609 28.5039 21.4609C29.4023 21.4609 30.1152 21.7598 30.6426 22.3574C31.1738 22.9551 31.4395 23.7637 31.4395 24.7832ZM26.5469 24.7832C26.5469 25.6035 26.7109 26.2285 27.0391 26.6582C27.3672 27.0879 27.8496 27.3027 28.4863 27.3027C29.123 27.3027 29.6055 27.0898 29.9336 26.6641C30.2656 26.2344 30.4316 25.6074 30.4316 24.7832C30.4316 23.9668 30.2656 23.3477 29.9336 22.9258C29.6055 22.5 29.1191 22.2871 28.4746 22.2871C27.8379 22.2871 27.3574 22.4961 27.0332 22.9141C26.709 23.332 26.5469 23.9551 26.5469 24.7832ZM34.0645 21.5781V25.7441C34.0645 26.2676 34.1836 26.6582 34.4219 26.916C34.6602 27.1738 35.0332 27.3027 35.541 27.3027C36.2129 27.3027 36.7031 27.1191 37.0117 26.752C37.3242 26.3848 37.4805 25.7852 37.4805 24.9531V21.5781H38.4531V28H37.6504L37.5098 27.1387H37.457C37.2578 27.4551 36.9805 27.6973 36.625 27.8652C36.2734 28.0332 35.8711 28.1172 35.418 28.1172C34.6367 28.1172 34.0508 27.9316 33.6602 27.5605C33.2734 27.1895 33.0801 26.5957 33.0801 25.7793V21.5781H34.0645ZM43.4512 21.4609C43.7363 21.4609 43.9922 21.4844 44.2188 21.5312L44.084 22.4336C43.8184 22.375 43.584 22.3457 43.3809 22.3457C42.8613 22.3457 42.416 22.5566 42.0449 22.9785C41.6777 23.4004 41.4941 23.9258 41.4941 24.5547V28H40.5215V21.5781H41.3242L41.4355 22.7676H41.4824C41.7207 22.3496 42.0078 22.0273 42.3438 21.8008C42.6797 21.5742 43.0488 21.4609 43.4512 21.4609ZM52.4863 28L52.293 27.0859H52.2461C51.9258 27.4883 51.6055 27.7617 51.2852 27.9062C50.9688 28.0469 50.5723 28.1172 50.0957 28.1172C49.459 28.1172 48.959 27.9531 48.5957 27.625C48.2363 27.2969 48.0566 26.8301 48.0566 26.2246C48.0566 24.9277 49.0938 24.248 51.168 24.1855L52.2578 24.1504V23.752C52.2578 23.248 52.1484 22.877 51.9297 22.6387C51.7148 22.3965 51.3691 22.2754 50.8926 22.2754C50.3574 22.2754 49.752 22.4395 49.0762 22.7676L48.7773 22.0234C49.0938 21.8516 49.4395 21.7168 49.8145 21.6191C50.1934 21.5215 50.5723 21.4727 50.9512 21.4727C51.7168 21.4727 52.2832 21.6426 52.6504 21.9824C53.0215 22.3223 53.207 22.8672 53.207 23.6172V28H52.4863ZM50.2891 27.3145C50.8945 27.3145 51.3691 27.1484 51.7129 26.8164C52.0605 26.4844 52.2344 26.0195 52.2344 25.4219V24.8418L51.2617 24.8828C50.4883 24.9102 49.9297 25.0312 49.5859 25.2461C49.2461 25.457 49.0762 25.7871 49.0762 26.2363C49.0762 26.5879 49.1816 26.8555 49.3926 27.0391C49.6074 27.2227 49.9062 27.3145 50.2891 27.3145ZM57.7832 28.1172C56.8535 28.1172 56.1328 27.832 55.6211 27.2617C55.1133 26.6875 54.8594 25.877 54.8594 24.8301C54.8594 23.7559 55.1172 22.9258 55.6328 22.3398C56.1523 21.7539 56.8906 21.4609 57.8477 21.4609C58.1562 21.4609 58.4648 21.4941 58.7734 21.5605C59.082 21.627 59.3242 21.7051 59.5 21.7949L59.2012 22.6211C58.9863 22.5352 58.752 22.4648 58.498 22.4102C58.2441 22.3516 58.0195 22.3223 57.8242 22.3223C56.5195 22.3223 55.8672 23.1543 55.8672 24.8184C55.8672 25.6074 56.0254 26.2129 56.3418 26.6348C56.6621 27.0566 57.1348 27.2676 57.7598 27.2676C58.2949 27.2676 58.8438 27.1523 59.4062 26.9219V27.7832C58.9766 28.0059 58.4355 28.1172 57.7832 28.1172ZM63.502 28.1172C62.5723 28.1172 61.8516 27.832 61.3398 27.2617C60.832 26.6875 60.5781 25.877 60.5781 24.8301C60.5781 23.7559 60.8359 22.9258 61.3516 22.3398C61.8711 21.7539 62.6094 21.4609 63.5664 21.4609C63.875 21.4609 64.1836 21.4941 64.4922 21.5605C64.8008 21.627 65.043 21.7051 65.2188 21.7949L64.9199 22.6211C64.7051 22.5352 64.4707 22.4648 64.2168 22.4102C63.9629 22.3516 63.7383 22.3223 63.543 22.3223C62.2383 22.3223 61.5859 23.1543 61.5859 24.8184C61.5859 25.6074 61.7441 26.2129 62.0605 26.6348C62.3809 27.0566 62.8535 27.2676 63.4785 27.2676C64.0137 27.2676 64.5625 27.1523 65.125 26.9219V27.7832C64.6953 28.0059 64.1543 28.1172 63.502 28.1172ZM72.1973 24.7832C72.1973 25.8301 71.9336 26.6484 71.4062 27.2383C70.8789 27.8242 70.1504 28.1172 69.2207 28.1172C68.6465 28.1172 68.1367 27.9824 67.6914 27.7129C67.2461 27.4434 66.9023 27.0566 66.6602 26.5527C66.418 26.0488 66.2969 25.459 66.2969 24.7832C66.2969 23.7363 66.5586 22.9219 67.082 22.3398C67.6055 21.7539 68.332 21.4609 69.2617 21.4609C70.1602 21.4609 70.873 21.7598 71.4004 22.3574C71.9316 22.9551 72.1973 23.7637 72.1973 24.7832ZM67.3047 24.7832C67.3047 25.6035 67.4688 26.2285 67.7969 26.6582C68.125 27.0879 68.6074 27.3027 69.2441 27.3027C69.8809 27.3027 70.3633 27.0898 70.6914 26.6641C71.0234 26.2344 71.1895 25.6074 71.1895 24.7832C71.1895 23.9668 71.0234 23.3477 70.6914 22.9258C70.3633 22.5 69.877 22.2871 69.2324 22.2871C68.5957 22.2871 68.1152 22.4961 67.791 22.9141C67.4668 23.332 67.3047 23.9551 67.3047 24.7832ZM74.8223 21.5781V25.7441C74.8223 26.2676 74.9414 26.6582 75.1797 26.916C75.418 27.1738 75.791 27.3027 76.2988 27.3027C76.9707 27.3027 77.4609 27.1191 77.7695 26.752C78.082 26.3848 78.2383 25.7852 78.2383 24.9531V21.5781H79.2109V28H78.4082L78.2676 27.1387H78.2148C78.0156 27.4551 77.7383 27.6973 77.3828 27.8652C77.0312 28.0332 76.6289 28.1172 76.1758 28.1172C75.3945 28.1172 74.8086 27.9316 74.418 27.5605C74.0312 27.1895 73.8379 26.5957 73.8379 25.7793V21.5781H74.8223ZM85.6738 28V23.8457C85.6738 23.3223 85.5547 22.9316 85.3164 22.6738C85.0781 22.416 84.7051 22.2871 84.1973 22.2871C83.5254 22.2871 83.0332 22.4688 82.7207 22.832C82.4082 23.1953 82.252 23.7949 82.252 24.6309V28H81.2793V21.5781H82.0703L82.2285 22.457H82.2754C82.4746 22.1406 82.7539 21.8965 83.1133 21.7246C83.4727 21.5488 83.873 21.4609 84.3145 21.4609C85.0879 21.4609 85.6699 21.6484 86.0605 22.0234C86.4512 22.3945 86.6465 22.9902 86.6465 23.8105V28H85.6738ZM90.7246 27.3145C90.8965 27.3145 91.0625 27.3027 91.2227 27.2793C91.3828 27.252 91.5098 27.2246 91.6035 27.1973V27.9414C91.498 27.9922 91.3418 28.0332 91.1348 28.0645C90.9316 28.0996 90.748 28.1172 90.584 28.1172C89.3418 28.1172 88.7207 27.4629 88.7207 26.1543V22.334H87.8008V21.8652L88.7207 21.4609L89.1309 20.0898H89.6934V21.5781H91.5566V22.334H89.6934V26.1133C89.6934 26.5 89.7852 26.7969 89.9688 27.0039C90.1523 27.2109 90.4043 27.3145 90.7246 27.3145Z" fill="#FFB900"/>
</svg>
