<svg width="110" height="47" viewBox="0 0 110 47" fill="none" xmlns="http://www.w3.org/2000/svg">
<path d="M109.5 46.5L0.5 46.5L0.5 0.5L109.5 0.5L109.5 46.5Z" fill="#FFB900" stroke="#FFB900"/>
<path d="M21.2266 23.7168L23.5117 19.4336H24.5898L21.7305 24.6777V28H20.7227V24.7246L17.8691 19.4336H18.959L21.2266 23.7168ZM31.1699 24.7832C31.1699 25.8301 30.9062 26.6484 30.3789 27.2383C29.8516 27.8242 29.123 28.1172 28.1934 28.1172C27.6191 28.1172 27.1094 27.9824 26.6641 27.7129C26.2188 27.4434 25.875 27.0566 25.6328 26.5527C25.3906 26.0488 25.2695 25.459 25.2695 24.7832C25.2695 23.7363 25.5312 22.9219 26.0547 22.3398C26.5781 21.7539 27.3047 21.4609 28.2344 21.4609C29.1328 21.4609 29.8457 21.7598 30.373 22.3574C30.9043 22.9551 31.1699 23.7637 31.1699 24.7832ZM26.2773 24.7832C26.2773 25.6035 26.4414 26.2285 26.7695 26.6582C27.0977 27.0879 27.5801 27.3027 28.2168 27.3027C28.8535 27.3027 29.3359 27.0898 29.6641 26.6641C29.9961 26.2344 30.1621 25.6074 30.1621 24.7832C30.1621 23.9668 29.9961 23.3477 29.6641 22.9258C29.3359 22.5 28.8496 22.2871 28.2051 22.2871C27.5684 22.2871 27.0879 22.4961 26.7637 22.9141C26.4395 23.332 26.2773 23.9551 26.2773 24.7832ZM33.7949 21.5781V25.7441C33.7949 26.2676 33.9141 26.6582 34.1523 26.916C34.3906 27.1738 34.7637 27.3027 35.2715 27.3027C35.9434 27.3027 36.4336 27.1191 36.7422 26.752C37.0547 26.3848 37.2109 25.7852 37.2109 24.9531V21.5781H38.1836V28H37.3809L37.2402 27.1387H37.1875C36.9883 27.4551 36.7109 27.6973 36.3555 27.8652C36.0039 28.0332 35.6016 28.1172 35.1484 28.1172C34.3672 28.1172 33.7812 27.9316 33.3906 27.5605C33.0039 27.1895 32.8105 26.5957 32.8105 25.7793V21.5781H33.7949ZM43.1816 21.4609C43.4668 21.4609 43.7227 21.4844 43.9492 21.5312L43.8145 22.4336C43.5488 22.375 43.3145 22.3457 43.1113 22.3457C42.5918 22.3457 42.1465 22.5566 41.7754 22.9785C41.4082 23.4004 41.2246 23.9258 41.2246 24.5547V28H40.252V21.5781H41.0547L41.166 22.7676H41.2129C41.4512 22.3496 41.7383 22.0273 42.0742 21.8008C42.4102 21.5742 42.7793 21.4609 43.1816 21.4609ZM51.2559 28.1172C50.8379 28.1172 50.4551 28.041 50.1074 27.8887C49.7637 27.7324 49.4746 27.4941 49.2402 27.1738H49.1699C49.2168 27.5488 49.2402 27.9043 49.2402 28.2402V30.8828H48.2676V21.5781H49.0586L49.1934 22.457H49.2402C49.4902 22.1055 49.7812 21.8516 50.1133 21.6953C50.4453 21.5391 50.8262 21.4609 51.2559 21.4609C52.1074 21.4609 52.7637 21.752 53.2246 22.334C53.6895 22.916 53.9219 23.7324 53.9219 24.7832C53.9219 25.8379 53.6855 26.6582 53.2129 27.2441C52.7441 27.8262 52.0918 28.1172 51.2559 28.1172ZM51.1152 22.2871C50.459 22.2871 49.9844 22.4688 49.6914 22.832C49.3984 23.1953 49.248 23.7734 49.2402 24.5664V24.7832C49.2402 25.6855 49.3906 26.332 49.6914 26.7227C49.9922 27.1094 50.4746 27.3027 51.1387 27.3027C51.6934 27.3027 52.127 27.0781 52.4395 26.6289C52.7559 26.1797 52.9141 25.5605 52.9141 24.7715C52.9141 23.9707 52.7559 23.3574 52.4395 22.9316C52.127 22.502 51.6855 22.2871 51.1152 22.2871ZM56.5996 28H55.627V18.8828H56.5996V28ZM62.6113 28L62.418 27.0859H62.3711C62.0508 27.4883 61.7305 27.7617 61.4102 27.9062C61.0938 28.0469 60.6973 28.1172 60.2207 28.1172C59.584 28.1172 59.084 27.9531 58.7207 27.625C58.3613 27.2969 58.1816 26.8301 58.1816 26.2246C58.1816 24.9277 59.2188 24.248 61.293 24.1855L62.3828 24.1504V23.752C62.3828 23.248 62.2734 22.877 62.0547 22.6387C61.8398 22.3965 61.4941 22.2754 61.0176 22.2754C60.4824 22.2754 59.877 22.4395 59.2012 22.7676L58.9023 22.0234C59.2188 21.8516 59.5645 21.7168 59.9395 21.6191C60.3184 21.5215 60.6973 21.4727 61.0762 21.4727C61.8418 21.4727 62.4082 21.6426 62.7754 21.9824C63.1465 22.3223 63.332 22.8672 63.332 23.6172V28H62.6113ZM60.4141 27.3145C61.0195 27.3145 61.4941 27.1484 61.8379 26.8164C62.1855 26.4844 62.3594 26.0195 62.3594 25.4219V24.8418L61.3867 24.8828C60.6133 24.9102 60.0547 25.0312 59.7109 25.2461C59.3711 25.457 59.2012 25.7871 59.2012 26.2363C59.2012 26.5879 59.3066 26.8555 59.5176 27.0391C59.7324 27.2227 60.0312 27.3145 60.4141 27.3145ZM64.3223 21.5781H65.3652L66.7715 25.2402C67.0801 26.0762 67.2715 26.6797 67.3457 27.0508H67.3926C67.4434 26.8516 67.5488 26.5117 67.709 26.0312C67.873 25.5469 68.4043 24.0625 69.3027 21.5781H70.3457L67.5859 28.8906C67.3125 29.6133 66.9922 30.125 66.625 30.4258C66.2617 30.7305 65.8145 30.8828 65.2832 30.8828C64.9863 30.8828 64.6934 30.8496 64.4043 30.7832V30.0039C64.6191 30.0508 64.8594 30.0742 65.125 30.0742C65.793 30.0742 66.2695 29.6992 66.5547 28.9492L66.9121 28.0352L64.3223 21.5781ZM72.3613 28H71.3887V18.8828H72.3613V28ZM75.3965 28H74.4238V21.5781H75.3965V28ZM74.3418 19.8379C74.3418 19.6152 74.3965 19.4531 74.5059 19.3516C74.6152 19.2461 74.752 19.1934 74.916 19.1934C75.0723 19.1934 75.207 19.2461 75.3203 19.3516C75.4336 19.457 75.4902 19.6191 75.4902 19.8379C75.4902 20.0566 75.4336 20.2207 75.3203 20.3301C75.207 20.4355 75.0723 20.4883 74.916 20.4883C74.752 20.4883 74.6152 20.4355 74.5059 20.3301C74.3965 20.2207 74.3418 20.0566 74.3418 19.8379ZM81.6016 26.248C81.6016 26.8457 81.3789 27.3066 80.9336 27.6309C80.4883 27.9551 79.8633 28.1172 79.0586 28.1172C78.207 28.1172 77.543 27.9824 77.0664 27.7129V26.8105C77.375 26.9668 77.7051 27.0898 78.0566 27.1797C78.4121 27.2695 78.7539 27.3145 79.082 27.3145C79.5898 27.3145 79.9805 27.2344 80.2539 27.0742C80.5273 26.9102 80.6641 26.6621 80.6641 26.3301C80.6641 26.0801 80.5547 25.8672 80.3359 25.6914C80.1211 25.5117 79.6992 25.3008 79.0703 25.0586C78.4727 24.8359 78.0469 24.6426 77.793 24.4785C77.543 24.3105 77.3555 24.1211 77.2305 23.9102C77.1094 23.6992 77.0488 23.4473 77.0488 23.1543C77.0488 22.6309 77.2617 22.2188 77.6875 21.918C78.1133 21.6133 78.6973 21.4609 79.4395 21.4609C80.1309 21.4609 80.8066 21.6016 81.4668 21.8828L81.1211 22.6738C80.4766 22.4082 79.8926 22.2754 79.3691 22.2754C78.9082 22.2754 78.5605 22.3477 78.3262 22.4922C78.0918 22.6367 77.9746 22.8359 77.9746 23.0898C77.9746 23.2617 78.0176 23.4082 78.1035 23.5293C78.1934 23.6504 78.3359 23.7656 78.5312 23.875C78.7266 23.9844 79.1016 24.1426 79.6562 24.3496C80.418 24.627 80.9316 24.9062 81.1973 25.1875C81.4668 25.4688 81.6016 25.8223 81.6016 26.248ZM85.2637 27.3145C85.4355 27.3145 85.6016 27.3027 85.7617 27.2793C85.9219 27.252 86.0488 27.2246 86.1426 27.1973V27.9414C86.0371 27.9922 85.8809 28.0332 85.6738 28.0645C85.4707 28.0996 85.2871 28.1172 85.123 28.1172C83.8809 28.1172 83.2598 27.4629 83.2598 26.1543V22.334H82.3398V21.8652L83.2598 21.4609L83.6699 20.0898H84.2324V21.5781H86.0957V22.334H84.2324V26.1133C84.2324 26.5 84.3242 26.7969 84.5078 27.0039C84.6914 27.2109 84.9434 27.3145 85.2637 27.3145ZM91.5742 26.248C91.5742 26.8457 91.3516 27.3066 90.9062 27.6309C90.4609 27.9551 89.8359 28.1172 89.0312 28.1172C88.1797 28.1172 87.5156 27.9824 87.0391 27.7129V26.8105C87.3477 26.9668 87.6777 27.0898 88.0293 27.1797C88.3848 27.2695 88.7266 27.3145 89.0547 27.3145C89.5625 27.3145 89.9531 27.2344 90.2266 27.0742C90.5 26.9102 90.6367 26.6621 90.6367 26.3301C90.6367 26.0801 90.5273 25.8672 90.3086 25.6914C90.0938 25.5117 89.6719 25.3008 89.043 25.0586C88.4453 24.8359 88.0195 24.6426 87.7656 24.4785C87.5156 24.3105 87.3281 24.1211 87.2031 23.9102C87.082 23.6992 87.0215 23.4473 87.0215 23.1543C87.0215 22.6309 87.2344 22.2188 87.6602 21.918C88.0859 21.6133 88.6699 21.4609 89.4121 21.4609C90.1035 21.4609 90.7793 21.6016 91.4395 21.8828L91.0938 22.6738C90.4492 22.4082 89.8652 22.2754 89.3418 22.2754C88.8809 22.2754 88.5332 22.3477 88.2988 22.4922C88.0645 22.6367 87.9473 22.8359 87.9473 23.0898C87.9473 23.2617 87.9902 23.4082 88.0762 23.5293C88.166 23.6504 88.3086 23.7656 88.5039 23.875C88.6992 23.9844 89.0742 24.1426 89.6289 24.3496C90.3906 24.627 90.9043 24.9062 91.1699 25.1875C91.4395 25.4688 91.5742 25.8223 91.5742 26.248Z" fill="black"/>
</svg>
